<?xml version="1.0" encoding="UTF-8" standalone="no"?>
<svg
   xmlns:dc="http://purl.org/dc/elements/1.1/"
   xmlns:cc="http://creativecommons.org/ns#"
   xmlns:rdf="http://www.w3.org/1999/02/22-rdf-syntax-ns#"
   xmlns:svg="http://www.w3.org/2000/svg"
   xmlns="http://www.w3.org/2000/svg"
   xmlns:sodipodi="http://sodipodi.sourceforge.net/DTD/sodipodi-0.dtd"
   xmlns:inkscape="http://www.inkscape.org/namespaces/inkscape"
   width="25400mm"
   height="254mm"
   viewBox="0 0 288000 2880"
   version="1.2"
   id="svg15400"
   sodipodi:docname="22SeptFinalSteps-BackToInkscape-6.svg"
   inkscape:version="1.0.2 (e86c8708, 2021-01-15)">

  <desc
     id="desc4">Generated with Qt</desc>
  <defs
     id="defs6" />
  <g
     inkscape:groupmode="layer"
     id="InitLinePart"
     inkscape:label="InitLine"
     style="display:inline"
     sodipodi:insensitive="true">
    <polyline
       fill="none"
       vector-effect="none"
       points="374,651 374,4531 "
       id="polyline8"
       transform="scale(0.5625)"
       style="fill-rule:evenodd;stroke:#000000;stroke-width:5;stroke-linecap:butt;stroke-linejoin:bevel;stroke-opacity:1" />
  </g>
  <g
     inkscape:groupmode="layer"
     id="BassPart"
     inkscape:label="Bass"
     style="display:inline"
     sodipodi:insensitive="true">
    <g
       id="BassPartLedgerLines"
       transform="scale(0.5625)" 
       style="display:inline;fill:none;fill-opacity:1;fill-rule:evenodd;stroke:#000000;stroke-width:5;stroke-linecap:butt;stroke-linejoin:bevel;stroke-opacity:1" >
      <polyline
         vector-effect="none"
         points="55800,811 55851,811 "
         id="polyline3214" />
      <polyline
         vector-effect="none"
         points="55800,843 55851,843 "
         id="polyline3218" />
      <polyline
         vector-effect="none"
         points="55800,875 55851,875 "
         id="polyline3222" />
      <polyline
         vector-effect="none"
         points="55800,907 55851,907 "
         id="polyline3226" />
      <polyline
         vector-effect="none"
         points="55800,939 55851,939 "
         id="polyline3230" />
      <polyline
         vector-effect="none"
         points="67015,619 67066,619 "
         id="polyline3242" />
      <polyline
         vector-effect="none"
         points="67015,587 67066,587 "
         id="polyline3246" />
      <polyline
         vector-effect="none"
         points="83115,619 83166,619 "
         id="polyline3254" />
      <polyline
         vector-effect="none"
         points="83115,587 83166,587 "
         id="polyline3258" />
      <polyline
         vector-effect="none"
         points="83115,555 83166,555 "
         id="polyline3262" />
      <polyline
         vector-effect="none"
         points="83115,523 83166,523 "
         id="polyline3266" />
      <polyline
         vector-effect="none"
         points="83115,491 83166,491 "
         id="polyline3270" />
      <polyline
         vector-effect="none"
         points="83115,459 83166,459 "
         id="polyline3274" />
      <polyline
         vector-effect="none"
         points="131807,811 131858,811 "
         id="polyline3294" />
      <polyline
         vector-effect="none"
         points="131807,843 131858,843 "
         id="polyline3298" />
      <polyline
         vector-effect="none"
         points="131807,875 131858,875 "
         id="polyline3302" />
      <polyline
         vector-effect="none"
         points="131807,907 131858,907 "
         id="polyline3306" />
      <polyline
         vector-effect="none"
         points="131807,939 131858,939 "
         id="polyline3310" />
      <polyline
         vector-effect="none"
         points="135172,619 135223,619 "
         id="polyline3318" />
      <polyline
         vector-effect="none"
         points="135172,587 135223,587 "
         id="polyline3322" />
      <polyline
         vector-effect="none"
         points="152064,619 152115,619 "
         id="polyline3330" />
      <polyline
         vector-effect="none"
         points="152064,587 152115,587 "
         id="polyline3334" />
      <polyline
         vector-effect="none"
         points="152064,555 152115,555 "
         id="polyline3338" />
      <polyline
         vector-effect="none"
         points="152064,523 152115,523 "
         id="polyline3342" />
      <polyline
         vector-effect="none"
         points="152064,491 152115,491 "
         id="polyline3346" />
      <polyline
         vector-effect="none"
         points="152064,459 152115,459 "
         id="polyline3350" />
      <polyline
         vector-effect="none"
         points="238408,811 238459,811 "
         id="polyline3366" />
      <polyline
         vector-effect="none"
         points="238408,843 238459,843 "
         id="polyline3370" />
      <polyline
         vector-effect="none"
         points="238408,875 238459,875 "
         id="polyline3374" />
      <polyline
         vector-effect="none"
         points="238408,907 238459,907 "
         id="polyline3378" />
      <polyline
         vector-effect="none"
         points="238408,939 238459,939 "
         id="polyline3382" />
      <polyline
         vector-effect="none"
         points="238969,811 239020,811 "
         id="polyline3390" />
      <polyline
         vector-effect="none"
         points="238969,843 239020,843 "
         id="polyline3394" />
      <polyline
         vector-effect="none"
         points="238969,875 239020,875 "
         id="polyline3398" />
      <polyline
         vector-effect="none"
         points="238969,907 239020,907 "
         id="polyline3402" />
      <polyline
         vector-effect="none"
         points="238969,939 239020,939 "
         id="polyline3406" />
      <polyline
         vector-effect="none"
         points="240651,811 240702,811 "
         id="polyline3414" />
      <polyline
         vector-effect="none"
         points="240651,843 240702,843 "
         id="polyline3418" />
      <polyline
         vector-effect="none"
         points="240651,875 240702,875 "
         id="polyline3422" />
      <polyline
         vector-effect="none"
         points="240651,907 240702,907 "
         id="polyline3426" />
      <polyline
         vector-effect="none"
         points="240651,939 240702,939 "
         id="polyline3430" />
      <polyline
         vector-effect="none"
         points="241825,811 241876,811 "
         id="polyline3438" />
      <polyline
         vector-effect="none"
         points="241825,843 241876,843 "
         id="polyline3442" />
      <polyline
         vector-effect="none"
         points="241825,875 241876,875 "
         id="polyline3446" />
      <polyline
         vector-effect="none"
         points="241825,907 241876,907 "
         id="polyline3450" />
      <polyline
         vector-effect="none"
         points="241825,939 241876,939 "
         id="polyline3454" />
      <polyline
         vector-effect="none"
         points="242956,811 243007,811 "
         id="polyline3462" />
      <polyline
         vector-effect="none"
         points="242956,843 243007,843 "
         id="polyline3466" />
      <polyline
         vector-effect="none"
         points="242956,875 243007,875 "
         id="polyline3470" />
      <polyline
         vector-effect="none"
         points="242956,907 243007,907 "
         id="polyline3474" />
      <polyline
         vector-effect="none"
         points="242956,939 243007,939 "
         id="polyline3478" />
      <polyline
         vector-effect="none"
         points="244638,811 244689,811 "
         id="polyline3490"
         transform="scale(0.5625)"
         style="font-style:normal;font-weight:400;font-size:128px;font-family:'Opus Special Std';display:inline;fill:none;fill-opacity:1;fill-rule:evenodd;stroke:#000000;stroke-width:5;stroke-linecap:butt;stroke-linejoin:bevel;stroke-opacity:1" />
      <polyline
         vector-effect="none"
         points="244638,843 244689,843 "
         id="polyline3494"
         transform="scale(0.5625)"
         style="font-style:normal;font-weight:400;font-size:128px;font-family:'Opus Special Std';display:inline;fill:none;fill-opacity:1;fill-rule:evenodd;stroke:#000000;stroke-width:5;stroke-linecap:butt;stroke-linejoin:bevel;stroke-opacity:1" />
      <polyline
         vector-effect="none"
         points="244638,875 244689,875 "
         id="polyline3498"
         transform="scale(0.5625)"
         style="font-style:normal;font-weight:400;font-size:128px;font-family:'Opus Special Std';display:inline;fill:none;fill-opacity:1;fill-rule:evenodd;stroke:#000000;stroke-width:5;stroke-linecap:butt;stroke-linejoin:bevel;stroke-opacity:1" />
      <polyline
         vector-effect="none"
         points="244638,907 244689,907 "
         id="polyline3502"
         transform="scale(0.5625)"
         style="font-style:normal;font-weight:400;font-size:128px;font-family:'Opus Special Std';display:inline;fill:none;fill-opacity:1;fill-rule:evenodd;stroke:#000000;stroke-width:5;stroke-linecap:butt;stroke-linejoin:bevel;stroke-opacity:1" />
      <polyline
         vector-effect="none"
         points="244638,939 244689,939 "
         id="polyline3506"
         transform="scale(0.5625)"
         style="font-style:normal;font-weight:400;font-size:128px;font-family:'Opus Special Std';display:inline;fill:none;fill-opacity:1;fill-rule:evenodd;stroke:#000000;stroke-width:5;stroke-linecap:butt;stroke-linejoin:bevel;stroke-opacity:1" />
      <polyline
         vector-effect="none"
         points="245771,811 245822,811 "
         id="polyline3514" />
      <polyline
         vector-effect="none"
         points="245771,843 245822,843 "
         id="polyline3518" />
      <polyline
         vector-effect="none"
         points="245771,875 245822,875 "
         id="polyline3522" />
      <polyline
         vector-effect="none"
         points="245771,907 245822,907 "
         id="polyline3526" />
      <polyline
         vector-effect="none"
         points="245771,939 245822,939 "
         id="polyline3530" />
      <polyline
         vector-effect="none"
         points="333983,619 334034,619 "
         id="polyline3750" />
      <polyline
         vector-effect="none"
         points="333983,587 334034,587 "
         id="polyline3754" />
      <polyline
         vector-effect="none"
         points="347526,619 347577,619 "
         id="polyline3762" />
      <polyline
         vector-effect="none"
         points="347526,587 347577,587 "
         id="polyline3766" />
      <polyline
         vector-effect="none"
         points="347526,555 347577,555 "
         id="polyline3770" />
      <polyline
         vector-effect="none"
         points="347526,523 347577,523 "
         id="polyline3774" />
      <polyline
         vector-effect="none"
         points="347526,491 347577,491 "
         id="polyline3778" />
      <polyline
         vector-effect="none"
         points="347526,459 347577,459 "
         id="polyline3782" />
      <polyline
         vector-effect="none"
         points="413522,619 413573,619 "
         id="polyline3934" />
      <polyline
         vector-effect="none"
         points="413522,587 413573,587 "
         id="polyline3938" />
      <polyline
         vector-effect="none"
         points="414363,619 414414,619 "
         id="polyline3962" />
      <polyline
         vector-effect="none"
         points="414363,587 414414,587 "
         id="polyline3966" />
      <polyline
         vector-effect="none"
         points="414923,619 414974,619 "
         id="polyline3978" />
      <polyline
         vector-effect="none"
         points="414923,587 414974,587 "
         id="polyline3982" />
      <polyline
         vector-effect="none"
         points="419026,811 419077,811 "
         id="polyline3994" />
      <polyline
         vector-effect="none"
         points="419026,843 419077,843 "
         id="polyline3998" />
      <polyline
         vector-effect="none"
         points="419026,875 419077,875 "
         id="polyline4002" />
      <polyline
         vector-effect="none"
         points="419026,907 419077,907 "
         id="polyline4006" />
      <polyline
         vector-effect="none"
         points="419026,939 419077,939 "
         id="polyline4010" />
      <polyline
         vector-effect="none"
         points="419026,619 419077,619 "
         id="polyline4014" />
      <polyline
         vector-effect="none"
         points="419026,587 419077,587 "
         id="polyline4018" />
      <polyline
         vector-effect="none"
         points="419026,555 419077,555 "
         id="polyline4022" />
      <polyline
         vector-effect="none"
         points="420007,619 420058,619 "
         id="polyline4038" />
      <polyline
         vector-effect="none"
         points="420007,587 420058,587 "
         id="polyline4042" />
      <polyline
         vector-effect="none"
         points="421689,619 421740,619 "
         id="polyline4050" />
      <polyline
         vector-effect="none"
         points="421689,587 421740,587 "
         id="polyline4054" />
      <polyline
         vector-effect="none"
         points="422250,811 422301,811 "
         id="polyline4066" />
      <polyline
         vector-effect="none"
         points="422250,843 422301,843 "
         id="polyline4070" />
      <polyline
         vector-effect="none"
         points="422250,875 422301,875 "
         id="polyline4074" />
      <polyline
         vector-effect="none"
         points="422250,907 422301,907 "
         id="polyline4078" />
      <polyline
         vector-effect="none"
         points="422250,939 422301,939 "
         id="polyline4082" />
      <polyline
         vector-effect="none"
         points="422250,619 422301,619 "
         id="polyline4086" />
      <polyline
         vector-effect="none"
         points="422250,587 422301,587 "
         id="polyline4090" />
      <polyline
         vector-effect="none"
         points="423231,811 423282,811 "
         id="polyline4106" />
      <polyline
         vector-effect="none"
         points="423231,843 423282,843 "
         id="polyline4110" />
      <polyline
         vector-effect="none"
         points="423231,875 423282,875 "
         id="polyline4114" />
      <polyline
         vector-effect="none"
         points="423231,907 423282,907 "
         id="polyline4118" />
      <polyline
         vector-effect="none"
         points="423231,939 423282,939 "
         id="polyline4122" />
      <polyline
         vector-effect="none"
         points="423974,811 424025,811 "
         id="polyline4134" />
      <polyline
         vector-effect="none"
         points="423974,843 424025,843 "
         id="polyline4138" />
      <polyline
         vector-effect="none"
         points="423974,875 424025,875 "
         id="polyline4142" />
      <polyline
         vector-effect="none"
         points="423974,907 424025,907 "
         id="polyline4146" />
      <polyline
         vector-effect="none"
         points="423974,939 424025,939 "
         id="polyline4150" />
      <polyline
         vector-effect="none"
         points="423974,619 424025,619 "
         id="polyline4154" />
      <polyline
         vector-effect="none"
         points="488633,619 488684,619 "
         id="polyline4342" />
      <polyline
         vector-effect="none"
         points="490315,619 490366,619 "
         id="polyline4354" />
      <polyline
         vector-effect="none"
         points="490315,587 490366,587 "
         id="polyline4358" />
      <polyline
         vector-effect="none"
         points="490315,555 490366,555 "
         id="polyline4362" />
      <polyline
         vector-effect="none"
         points="490315,523 490366,523 "
         id="polyline4366" />
      <polyline
         vector-effect="none"
         points="490315,491 490366,491 "
         id="polyline4370" />
      <polyline
         vector-effect="none"
         points="490315,459 490366,459 "
         id="polyline4374" />
    </g>
    <g
       id="BassPartStave">
      <polyline
         vector-effect="none"
         points="372,779 511698,779 "
         id="polyline44"
         transform="scale(0.5625)"
         style="display:inline;fill:none;fill-rule:evenodd;stroke:#000000;stroke-width:3;stroke-linecap:butt;stroke-linejoin:bevel;stroke-opacity:1" />
      <polyline
         vector-effect="none"
         points="372,747 511698,747 "
         id="polyline48"
         transform="scale(0.5625)"
         style="display:inline;fill:none;fill-rule:evenodd;stroke:#000000;stroke-width:3;stroke-linecap:butt;stroke-linejoin:bevel;stroke-opacity:1" />
      <polyline
         vector-effect="none"
         points="372,715 511698,715 "
         id="polyline52"
         transform="scale(0.5625)"
         style="display:inline;fill:none;fill-rule:evenodd;stroke:#000000;stroke-width:3;stroke-linecap:butt;stroke-linejoin:bevel;stroke-opacity:1" />
      <polyline
         vector-effect="none"
         points="372,683 511698,683 "
         id="polyline56"
         transform="scale(0.5625)"
         style="display:inline;fill:none;fill-rule:evenodd;stroke:#000000;stroke-width:3;stroke-linecap:butt;stroke-linejoin:bevel;stroke-opacity:1" />
      <polyline
         vector-effect="none"
         points="372,651 511698,651 "
         id="polyline60"
         transform="scale(0.5625)"
         style="display:inline;fill:none;fill-rule:evenodd;stroke:#000000;stroke-width:3;stroke-linecap:butt;stroke-linejoin:bevel;stroke-opacity:1" />
      <polyline
         vector-effect="none"
         points="511656,651 511656,779 "
         id="polyline12"
         transform="scale(0.5625)"
         style="display:inline;fill:none;fill-rule:evenodd;stroke:#000000;stroke-width:5;stroke-linecap:butt;stroke-linejoin:bevel;stroke-opacity:1" />
    </g>
    <path
       id="path672"
       style="display:inline;fill:#000000;fill-opacity:1;stroke:none;stroke-width:0.5625;stroke-linecap:square;stroke-linejoin:bevel"
       d="m 275807.25,262.6155 h 3468.38 v -9 h -3468.38 v 9 m -946.12,81 h 4414.5 v -9 h -4414.5 v 9 m -1261.69,54 h 5676.19 v -9 h -5676.19 v 9 m -2226.94,27 h 7903.13 v -9 h -7903.13 v 9 m -3821.62,-9 h 3759.18 v -9 h -3759.18 v 9 m -1892.82,-36 h 1733.63 v -9 h -1733.63 v 9 m -630.56,9 h 608.63 v -9 h -608.63 v 9 m -946.12,-27 h 981 v -9 h -981 v 9 m -2129.07,18.6345 h 2127.38 v -9 h -2127.38 v 9 m -1025.43,8.3655 h 1003.5 v -9 h -1003.5 v 9 m -788.63,-27 h 786.94 v -9 h -786.94 v 9 m -93.37,18 93.37,-18 v -9 l -93.37,18 v 9 m -1325.82,0 h 1325.82 v -9 h -1325.82 v 9 m -1024.87,9 h 975.37 v -9 h -975.37 v 9 m -552.38,-27 h 550.69 v -9 h -550.69 v 9 m -2286.56,9 h 2253.94 v -9 h -2253.94 v 9 m -1656,9 h 1518.19 v -9 h -1518.19 v 9 m -1734.75,-9 h 1688.06 v -9 h -1688.06 v 9 m -1577.25,9 H 251424 v -9 h -1536.75 v 9 m -1294.31,-9 h 1265.62 v -9 h -1265.62 v 9 m -1340.44,9 h 1338.75 v -9 h -1338.75 v 9 m -867.37,-9 h 865.68 v -9 h -865.68 v 9 m -1577.25,9 h 1532.81 v -9 h -1532.81 v 9 m -4345.88,-18 h 4300.88 v -9 H 240462 v 9 m -1971.56,-18 h 1969.87 v -9 h -1969.87 v 9 m -654.19,18 h 652.5 v -9 h -652.5 v 9 m -631.12,-27 h 629.43 v -9 h -629.43 v 9 m 315.56,207 h 136.12 v -9 h -136.12 v 9 m -1261.69,-216 h 900.56 v -9 H 236259 v 9 m -551.81,216 h 1272.37 v -9 h -1272.37 v 9 m 0,-225 h 496.12 v -9 h -496.12 v 9 m -3080.44,17.38964 457.3,-7.19264 h 2595.01 v -9 h -2595.01 l -457.3,7.19264 v 9 m 457.5,54.60834 h 2549.25 v -9 h -2549.25 v 9 m -459.56,9.07402 459.56,-9.07402 v -9 l -459.56,9.07402 v 9 m -13.5,-27.072 h 471.37 v -9 h -471.37 v 9 m -1735.31,27 h 1742.06 v -9 h -1742.06 v 9 m -344.25,9 h 306 v -9 h -306 v 9 m -1892.82,-9 h 1854 v -9 h -1854 v 9 m -209.81,9 209.81,-9 v -9 l -209.81,9 v 9 m -657.56,0 h 657.56 v -9 h -657.56 v 9 m -394.31,-18.00202 h 392.62 v -9 h -392.62 v 9 m -473.07,-8.99798 h 418.5 v -9 h -418.5 v 9 m -1892.25,18 h 1843.88 v -9 h -1843.88 v 9 m -709.87,9 h 672.75 v -9 h -672.75 v 9 m -394.31,-18 h 392.62 v -9 h -392.62 v 9 m -551.82,-9 h 520.32 v -9 h -520.32 v 9 m -2052.56,18 h 2035.69 v -9 h -2035.69 v 9 m -118.69,9 118.69,-9 v -9 l -118.69,9 v 9 m -433.12,0 h 433.12 v -9 h -433.12 v 9 m -473.06,-18 h 471.37 v -9 h -471.37 v 9 m -315.57,-9 h 313.88 v -9 h -313.88 v 9 m -2207.81,18 h 2120.06 v -9 H 217755 v 9 m -631.12,9 h 612.56 v -9 h -612.56 v 9 m -394.32,-18.00202 h 368.44 v -9 h -368.44 v 9 m -394.31,-8.99798 h 412.31 v -9 h -412.31 v 9 m -1577.25,16.947 h 1535.06 v -9 H 214758 v 9 m -236.25,1.053 h 203.06 v -9 h -203.06 v 9 m -394.31,9 h 362.81 v -9 h -362.81 v 9 m -236.81,0 h 208.68 v -9 h -208.68 v 9 m -394.32,-18.00202 h 376.88 v -9 h -376.88 v 9 m -315,-8.99798 h 331.88 v -9 h -331.88 v 9 m -17674.87,-117.28125 17609.06,0.5625 v -9 l -17609.06,-0.5625 v 9 M 187884,325.6155 h 25231.5 v -9 H 187884 v 9 m -5077.12,62.99798 h 30308.62 v -9 h -30308.62 v 9 m -1590.75,27.00202 h 1517.62 v -9 h -1517.62 v 9 m -1593.57,-36 h 3103.32 v -9 h -3103.32 v 9 m -867.37,9 h 777.37 v -9 h -777.37 v 9 m -75.38,-18 75.38,18 v -9 l -75.38,-18 v 9 m -1895.62,0 h 1895.62 v -9 h -1895.62 v 9 m -334.69,9 h 301.5 v -9 h -301.5 v 9 m -631.12,9 h 591.75 v -9 h -591.75 v 9 m -3843,-9 h 3778.87 v -9 h -3778.87 v 9 m -968.07,8.99798 h 968.07 v -9 h -968.07 v 9 m -1599.75,-17.99798 h 1573.32 v -9 h -1573.32 v 9 m -236.25,0 h 209.82 v -9 h -209.82 v 9 m -196.87,9 198,-9 v -9 l -198,9 v 9 m -197.44,0 h 197.44 v -9 H 168777 v 9 m -392.06,9 h 385.87 v -9 h -385.87 v 9 m -1828.69,-9 h 1767.94 v -9 h -1767.94 v 9 m -631.12,9 h 585 v -9 h -585 v 9 m -2623.5,-18 h 2583.56 v -9 h -2583.56 v 9 m -116.44,9 116.44,-9 v -9 l -116.44,9 v 9 m -128.25,0 h 128.25 v -9 h -128.25 v 9 m -323.44,9 h 276.75 v -9 h -276.75 v 9 m -2232.56,-9 h 2178 v -9 h -2178 v 9 m -473.06,9 h 426.37 v -9 h -426.37 v 9 m -1824.19,-18 h 1774.69 v -9 h -1774.69 v 9 m -236.81,0 h 201.93 v -9 h -201.93 v 9 m -236.82,10.197 236.82,-10.197 v -9 l -236.82,10.197 v 9 m -414,7.80098 h 393.19 v -9 h -393.19 v 9 m -2868.18,-8.99798 h 2803.5 v -9 h -2803.5 v 9 m -483.75,9 h 447.18 v -9 h -447.18 v 9 m -1875.38,-18 h 1800 v -9 h -1800 v 9 m -152.44,9 142.25,-7.9069 v -9 l -142.25,7.9069 v 9 m -190.12,0 h 190.12 v -9 h -190.12 v 9 m -843.19,8.99798 h 841.5 v -9 h -841.5 v 9 m -2207.81,-8.99798 h 2147.06 v -9 h -2147.06 v 9 m -799.31,8.99798 h 797.62 v -9 h -797.62 v 9 m -1886.63,-17.99798 h 1884.94 v -9 h -1884.94 v 9 m -190.69,9 185.62,-8.4375 v -9 l -185.62,8.4375 v 9 m -139.5,0 h 139.5 v -9 h -139.5 v 9 m -793.12,8.99798 h 696.37 v -9 h -696.37 v 9 m -1884.38,-8.99798 h 1882.69 v -9 h -1882.69 v 9 m -639,8.99798 h 581.63 v -9 h -581.63 v 9 M 139684.5,370.6155 h 2608.88 v -9 h -2608.88 v 9 m -158.62,10.197 160.31,-10.125 v -9 l -160.31,10.125 v 9 m -327.94,-1.197 h 326.81 v -9 h -326.81 v 9 m -946.69,162 h 631.13 v -9 h -631.13 v 9 m -1583.44,0.28125 214.88,-0.5625 v -9 l -214.88,0.5625 v 9 m -636.18,-0.28125 h 385.87 v -9 h -385.87 v 9 m -645.19,0 h 536.06 v -9 h -536.06 v 9 m -961.31,0 h 506.81 v -9 h -506.81 v 9 m -16806.94,-180 h 16179.75 v -9 h -16179.75 v 9 m -32077.128,-99 h 48262.498 v -9 H 85541.062 v 9 m -9492.187,63 h 57748.505 v -9 H 76048.875 v 9 m -1893.375,216 h 59641.88 v -9 H 74155.5 v 9 m -324,-153.00202 h 59965.88 v -9 H 73831.5 v 9 M 56602.688,379.6155 h 3733.875 v -9 h -3733.875 v 9 m -9845.438,-117 h 9776.25 v -9 h -9776.25 v 9 m -9056.25,62.71875 18832.5,0.5625 v -9 L 37701,316.33425 v 9 m -3153.937,63.28125 h 21989.812 v -9 H 34547.063 v 9 m -3154.501,153 h 3152.813 v -9 h -3152.813 v 9 m -2242.125,-180 h 2240.438 v -9 h -2240.438 v 9 m -2532.375,0 H 29088 v -9 h -2469.938 v 9 m -2523.937,27 h 2840.625 v -9 h -2840.625 v 9 m -4100.625,0 h 4044.375 v -9 H 19993.5 v 9 m -1943.438,54 h 2257.313 v -9 h -2257.313 v 9 m -1587.375,-63 h 3529.125 v -9 h -3529.125 v 9 m -3469.499,8.99798 H 16461 v -9 h -3467.812 v 9 m -3154.5005,0.002 h 3071.2505 v -9 H 9838.6875 v 9 m -3785.0625,-0.002 H 9837 v -9 H 6053.625 v 9 m -5046.75,0 h 5045.0625 v -9 H 1006.875 v 9 M 235574.07,193.3065 l -4.56,19.62225 1.48,0.38475 c 2.5,-1.98788 4.87,-2.8215 7.89,-2.8215 6.09,0 10.51,4.29637 10.51,10.38825 0,6.79725 -6.02,12.24787 -13.46,12.24787 -1.8,0 -3.66,-0.2565 -6.09,-0.7695 l -0.97,2.18025 c 2.7,0.89775 5.65,1.34663 8.53,1.34663 10.45,0 18.21,-6.73313 18.21,-15.903 0,-8.27213 -6.47,-14.68463 -14.81,-14.68463 -2.44,0 -4.49,0.513 -7.44,1.73138 l 1.93,-8.52863 h 19.23 l 1.22,-5.96362 h -2.18 c -0.51,0.64125 -1.15,0.7695 -3.72,0.7695 z m -39.49,21.16125 h 1.86 c 2.89,0 3.59,0.70537 5.13,2.62912 l 8.53,10.64475 c 4.81,5.96363 6.73,7.37438 11.35,7.37438 h 5.13 v -2.43675 c -2.5,0 -5.77,-3.078 -10.64,-8.59275 l -9.17,-10.45238 c 8.65,-1.41075 11.92,-6.28425 11.92,-10.96537 0,-6.22013 -4.36,-11.286 -16.35,-11.286 h -20.97 v 2.43675 c 4.49,0 6.48,2.052 6.48,6.28425 v 25.20112 c 0,4.29638 -0.83,7.37438 -6.48,7.37438 v 2.43675 h 19.95 v -2.43675 c -4.81,0 -6.74,-1.98788 -6.74,-6.02775 z m 0,-2.75738 v -17.57025 h 5 c 7.89,0 11.35,4.42463 11.35,9.29813 0,5.13 -3.14,8.27212 -10.32,8.27212 z m -52647.46,72.16425 h 5.65 l 0.96,-7.24612 h -2.18 c -0.96,3.14212 -1.86,4.104 -4.43,4.104 V 253.287 h -5.13 l -18.46,26.86837 v 3.71925 h 17.57 v 4.48875 c 0,3.65513 -1.41,5.19413 -5.77,5.19413 v 2.3085 h 17.44 v -2.3085 c -4.04,0 -5.65,-1.34663 -5.65,-5.06588 z m -6.02,-3.14212 h -14.94 l 14.81,-21.86663 h 0.13 z m -50.52,-5.51475 h 1.86 c 2.89,0 3.59,0.70537 5.13,2.62912 l 8.53,10.64475 c 4.81,5.96363 6.73,7.37438 11.35,7.37438 h 5.13 v -2.43675 c -2.5,0 -5.77,-3.078 -10.64,-8.59275 l -9.17,-10.45238 c 8.65,-1.41075 11.92,-6.28425 11.92,-10.96537 0,-6.22013 -4.36,-11.286 -16.35,-11.286 h -20.97 v 2.43675 c 4.49,0 6.48,2.052 6.48,6.28425 v 25.20112 c 0,4.29638 -0.83,7.37438 -6.48,7.37438 v 2.43675 h 19.95 v -2.43675 c -4.81,0 -6.74,-1.98788 -6.74,-6.02775 z m 0,-2.75738 v -17.57025 h 5 c 7.89,0 11.35,4.42463 11.35,9.29813 0,5.13 -3.14,8.27212 -10.32,8.27212 z m -48884.2,9.4725 c 2.37,-1.60312 4.61,-2.43675 6.6,-2.43675 4.17,0 7.38,3.39863 7.38,8.14388 0,6.73312 -6.03,11.86312 -13.34,11.86312 -2.7,0 -4.81,-0.513 -7.89,-1.98787 l -1.28,1.85962 c 2.31,1.73138 6.41,2.88563 10.19,2.88563 9.94,0 18.34,-7.56675 18.34,-16.09538 0,-5.51475 -4.36,-10.96537 -10.51,-10.06762 l -0.13,-0.12825 c 5.45,-3.591 7.56,-6.156 7.56,-9.42638 0,-4.48875 -4.1,-7.63087 -9.74,-7.63087 -5.71,0 -10.33,3.14212 -14.75,9.10575 l 1.79,1.41075 c 3.79,-4.23225 7.64,-6.47663 11.1,-6.47663 3.2,0 5.58,2.37263 5.58,5.32238 0,4.16812 -3.91,7.05375 -11.93,11.5425 z m -41.8,-1.09012 h 1.86 c 2.89,0 3.59,0.70537 5.13,2.62912 l 8.53,10.64475 c 4.81,5.96363 6.73,7.37438 11.35,7.37438 h 5.13 v -2.43675 c -2.5,0 -5.77,-3.078 -10.64,-8.59275 l -9.17,-10.45238 c 8.65,-1.41075 11.92,-6.28425 11.92,-10.96537 0,-6.22013 -4.36,-11.286 -16.35,-11.286 h -20.97 v 2.43675 c 4.49,0 6.48,2.052 6.48,6.28425 v 25.20112 c 0,4.29638 -0.83,7.37438 -6.48,7.37438 v 2.43675 h 19.95 v -2.43675 c -4.81,0 -6.74,-1.98788 -6.74,-6.02775 z m 0,-2.75738 v -17.57025 h 5 c 7.89,0 11.35,4.42463 11.35,9.29813 0,5.13 -3.14,8.27212 -10.32,8.27212 z m -60184.273,28.575 h -2.244 c -1.796,4.23225 -3.399,5.3865 -7.503,5.3865 h -13.466 c 9.362,-11.35012 21.29,-14.877 21.29,-25.45762 0,-6.60488 -5.259,-11.92725 -11.928,-11.92725 -6.605,0 -11.991,4.80937 -15.069,13.40212 l 2.373,0.96188 c 2.629,-6.22013 6.604,-9.747 11.093,-9.747 4.104,0 7.503,3.8475 7.503,8.52862 0,7.82325 -9.427,14.1075 -21.226,27.12488 v 2.3085 h 26.035 z m -62.826,-10.06762 h 1.859 c 2.886,0 3.591,0.70537 5.13,2.62912 l 8.529,10.64475 c 4.809,5.96363 6.733,7.37438 11.35,7.37438 h 5.13 v -2.43675 c -2.501,0 -5.771,-3.078 -10.645,-8.59275 l -9.169,-10.45238 c 8.656,-1.41075 11.927,-6.28425 11.927,-10.96537 0,-6.22013 -4.361,-11.286 -16.352,-11.286 h -20.969 v 2.43675 c 4.489,0 6.477,2.052 6.477,6.28425 v 25.20112 c 0,4.29638 -0.834,7.37438 -6.477,7.37438 v 2.43675 h 19.943 v -2.43675 c -4.809,0 -6.733,-1.98788 -6.733,-6.02775 z m 0,-2.75738 v -17.57025 h 5.002 c 7.887,0 11.35,4.42463 11.35,9.29813 0,5.13 -3.142,8.27212 -10.324,8.27212 z M 31230.658,251.59999 h -1.859 c -3.142,2.43675 -5.772,3.27037 -10.324,3.27037 v 2.3085 h 1.09 c 3.719,0 5.066,1.7955 5.066,5.25825 v 23.598 c 0,3.91163 -1.668,5.83538 -5.323,5.83538 h -1.026 v 2.3085 h 18.212 v -2.3085 h -0.642 c -3.783,0 -5.194,-2.11613 -5.194,-6.02775 z m -51.476,21.93075 h 1.86 c 2.885,0 3.591,0.70537 5.13,2.62912 l 8.528,10.64475 c 4.81,5.96363 6.733,7.37438 11.35,7.37438 h 5.13 v -2.43675 c -2.501,0 -5.771,-3.078 -10.644,-8.59275 l -9.17,-10.45238 c 8.657,-1.41075 11.927,-6.28425 11.927,-10.96537 0,-6.22013 -4.361,-11.286 -16.352,-11.286 h -20.969 v 2.43675 c 4.489,0 6.477,2.052 6.477,6.28425 v 25.20112 c 0,4.29638 -0.834,7.37438 -6.477,7.37438 v 2.43675 h 19.943 v -2.43675 c -4.809,0 -6.733,-1.98788 -6.733,-6.02775 z m 0,-2.75738 v -17.57025 h 5.002 c 7.887,0 11.35,4.42463 11.35,9.29813 0,5.13 -3.142,8.27212 -10.324,8.27212 z M 223.398,423.9315 c 0.072,1.08 0.792,1.656 2.304,1.656 5.904,0 22.32,-8.136 29.232,-19.224 5.544,-8.784 7.128,-13.32 7.128,-19.296 0,-9.576 -4.392,-21.168 -21.312,-21.168 -9.216,0 -17.568,6.48 -17.568,14.976 0,5.544 2.952,10.296 7.488,10.296 4.536,0 7.632,-3.456 7.632,-7.992 0,-3.24 -2.448,-6.192 -5.616,-6.192 -2.952,0 -5.184,2.304 -4.968,2.304 -0.36,0 -0.504,-0.36 -0.504,-1.152 0,-5.04 6.336,-9.936 12.168,-9.936 8.208,0 13.392,6.84 13.392,15.984 0,11.376 -6.624,23.976 -17.208,33.48 -2.808,2.52 -6.912,4.608 -12.168,6.264 z m 44.712,-48.744 c 0,2.016 1.584,3.6 3.6,3.6 2.016,0 3.6,-1.584 3.6,-3.6 0,-2.016 -1.584,-3.6 -3.6,-3.6 -2.016,0 -3.6,1.584 -3.6,3.6 z m 0,17.928 c 0,2.016 1.584,3.6 3.6,3.6 2.016,0 3.6,-1.584 3.6,-3.6 0,-2.016 -1.584,-3.6 -3.6,-3.6 -2.016,0 -3.6,1.584 -3.6,3.6 z m 228598.52,-3.384 c -1.73,0 -3.32,1.512 -3.32,3.456 0,1.656 1.66,3.24 3.32,3.24 1.94,0 3.45,-1.584 3.45,-3.24 0,-1.944 -1.51,-3.456 -3.45,-3.456 z m -92168.44,144 c -1.73,0 -3.31,1.512 -3.31,3.456 0,1.656 1.65,3.24 3.31,3.24 1.94,0 3.45,-1.584 3.45,-3.24 0,-1.944 -1.51,-3.456 -3.45,-3.456 z m 139127.35,-275.616 c 0,-2.52 -0.87,-4.608 -2.67,-6.408 -1.8,-1.8 -3.88,-2.736 -6.4,-2.736 -2.52,0 -4.76,0.936 -6.56,2.736 -1.8,1.8 -2.66,3.888 -2.66,6.408 0,2.52 0.86,4.608 2.66,6.408 1.8,1.8 4.04,2.736 6.56,2.736 2.52,0 4.6,-0.936 6.4,-2.736 1.8,-1.8 2.67,-3.888 2.67,-6.408 z m -946.13,81 c 0,-2.52 -0.86,-4.608 -2.66,-6.408 -1.8,-1.8 -3.89,-2.736 -6.41,-2.736 -2.52,0 -4.75,0.936 -6.55,2.736 -1.8,1.8 -2.66,3.888 -2.66,6.408 0,2.52 0.86,4.608 2.66,6.408 1.8,1.8 4.03,2.736 6.55,2.736 2.52,0 4.61,-0.936 6.41,-2.736 1.8,-1.8 2.66,-3.888 2.66,-6.408 z m -1261.68,54 c 0,-2.52 -0.87,-4.608 -2.67,-6.408 -1.8,-1.8 -3.89,-2.736 -6.41,-2.736 -2.52,0 -4.75,0.936 -6.55,2.736 -1.8,1.8 -2.66,3.888 -2.66,6.408 0,2.52 0.86,4.608 2.66,6.408 1.8,1.8 4.03,2.736 6.55,2.736 2.52,0 4.61,-0.936 6.41,-2.736 1.8,-1.8 2.67,-3.888 2.67,-6.408 z m -1577.25,27 c 0,-2.52 -0.87,-4.608 -2.67,-6.408 -1.8,-1.8 -3.89,-2.736 -6.41,-2.736 -2.52,0 -4.75,0.936 -6.55,2.736 -1.8,1.8 -2.66,3.888 -2.66,6.408 0,2.52 0.86,4.608 2.66,6.408 1.8,1.8 4.03,2.736 6.55,2.736 2.52,0 4.61,-0.936 6.41,-2.736 1.8,-1.8 2.67,-3.888 2.67,-6.408 z m -649.69,0 c 0,-2.52 -0.87,-4.608 -2.67,-6.408 -1.8,-1.8 -3.88,-2.736 -6.4,-2.736 -2.52,0 -4.76,0.936 -6.56,2.736 -1.8,1.8 -2.66,3.888 -2.66,6.408 0,2.52 0.86,4.608 2.66,6.408 1.8,1.8 4.04,2.736 6.56,2.736 2.52,0 4.6,-0.936 6.4,-2.736 1.8,-1.8 2.67,-3.888 2.67,-6.408 z m -953.44,-9 c 0,-2.52 -0.86,-4.608 -2.66,-6.408 -1.8,-1.8 -3.89,-2.736 -6.41,-2.736 -2.52,0 -4.75,0.936 -6.55,2.736 -1.8,1.8 -2.67,3.888 -2.67,6.408 0,2.52 0.87,4.608 2.67,6.408 1.8,1.8 4.03,2.736 6.55,2.736 2.52,0 4.61,-0.936 6.41,-2.736 1.8,-1.8 2.66,-3.888 2.66,-6.408 z m -631.12,0 c 0,-2.52 -0.87,-4.608 -2.67,-6.408 -1.8,-1.8 -3.89,-2.736 -6.41,-2.736 -2.52,0 -4.75,0.936 -6.55,2.736 -1.8,1.8 -2.66,3.888 -2.66,6.408 0,2.52 0.86,4.608 2.66,6.408 1.8,1.8 4.03,2.736 6.55,2.736 2.52,0 4.61,-0.936 6.41,-2.736 1.8,-1.8 2.67,-3.888 2.67,-6.408 z m -1290.94,0 c 0,-2.52 -0.87,-4.608 -2.67,-6.408 -1.8,-1.8 -3.88,-2.736 -6.4,-2.736 -2.52,0 -4.76,0.936 -6.56,2.736 -1.8,1.8 -2.66,3.888 -2.66,6.408 0,2.52 0.86,4.608 2.66,6.408 1.8,1.8 4.04,2.736 6.56,2.736 2.52,0 4.6,-0.936 6.4,-2.736 1.8,-1.8 2.67,-3.888 2.67,-6.408 z m -946.13,0 c 0,-2.52 -0.86,-4.608 -2.66,-6.408 -1.8,-1.8 -3.89,-2.736 -6.41,-2.736 -2.52,0 -4.75,0.936 -6.55,2.736 -1.8,1.8 -2.66,3.888 -2.66,6.408 0,2.52 0.86,4.608 2.66,6.408 1.8,1.8 4.03,2.736 6.55,2.736 2.52,0 4.61,-0.936 6.41,-2.736 1.8,-1.8 2.66,-3.888 2.66,-6.408 z m -157.5,0 c 0,-2.52 -0.86,-4.608 -2.66,-6.408 -1.8,-1.8 -3.89,-2.736 -6.41,-2.736 -2.52,0 -4.75,0.936 -6.55,2.736 -1.8,1.8 -2.66,3.888 -2.66,6.408 0,2.52 0.86,4.608 2.66,6.408 1.8,1.8 4.03,2.736 6.55,2.736 2.52,0 4.61,-0.936 6.41,-2.736 1.8,-1.8 2.66,-3.888 2.66,-6.408 z m -1104.18,-36 c 0,-2.52 -0.87,-4.608 -2.67,-6.408 -1.8,-1.8 -3.89,-2.736 -6.41,-2.736 -2.52,0 -4.75,0.936 -6.55,2.736 -1.8,1.8 -2.66,3.888 -2.66,6.408 0,2.52 0.86,4.608 2.66,6.408 1.8,1.8 4.03,2.736 6.55,2.736 2.52,0 4.61,-0.936 6.41,-2.736 1.8,-1.8 2.67,-3.888 2.67,-6.408 z m -631.13,0 c 0,-2.52 -0.86,-4.608 -2.66,-6.408 -1.8,-1.8 -3.89,-2.736 -6.41,-2.736 -2.52,0 -4.75,0.936 -6.55,2.736 -1.8,1.8 -2.67,3.888 -2.67,6.408 0,2.52 0.87,4.608 2.67,6.408 1.8,1.8 4.03,2.736 6.55,2.736 2.52,0 4.61,-0.936 6.41,-2.736 1.8,-1.8 2.66,-3.888 2.66,-6.408 z m -157.5,9 c 0,-2.52 -0.86,-4.608 -2.66,-6.408 -1.8,-1.8 -3.89,-2.736 -6.41,-2.736 -2.52,0 -4.75,0.936 -6.55,2.736 -1.8,1.8 -2.67,3.888 -2.67,6.408 0,2.52 0.87,4.608 2.67,6.408 1.8,1.8 4.03,2.736 6.55,2.736 2.52,0 4.61,-0.936 6.41,-2.736 1.8,-1.8 2.66,-3.888 2.66,-6.408 z m -1419.19,-27 c 0,-2.52 -0.86,-4.608 -2.66,-6.408 -1.8,-1.8 -3.89,-2.736 -6.41,-2.736 -2.52,0 -4.75,0.936 -6.55,2.736 -1.8,1.8 -2.66,3.888 -2.66,6.408 0,2.52 0.86,4.608 2.66,6.408 1.8,1.8 4.03,2.736 6.55,2.736 2.52,0 4.61,-0.936 6.41,-2.736 1.8,-1.8 2.66,-3.888 2.66,-6.408 z m -1577.25,18 c 0,-2.52 -0.86,-4.608 -2.66,-6.408 -1.8,-1.8 -3.89,-2.736 -6.41,-2.736 -2.52,0 -4.75,0.936 -6.55,2.736 -1.8,1.8 -2.66,3.888 -2.66,6.408 0,2.52 0.86,4.608 2.66,6.408 1.8,1.8 4.03,2.736 6.55,2.736 2.52,0 4.61,-0.936 6.41,-2.736 1.8,-1.8 2.66,-3.888 2.66,-6.408 z m -946.12,9 c 0,-2.52 -0.87,-4.608 -2.67,-6.408 -1.8,-1.8 -3.88,-2.736 -6.4,-2.736 -2.52,0 -4.76,0.936 -6.56,2.736 -1.8,1.8 -2.66,3.888 -2.66,6.408 0,2.52 0.86,4.608 2.66,6.408 1.8,1.8 4.04,2.736 6.56,2.736 2.52,0 4.6,-0.936 6.4,-2.736 1.8,-1.8 2.67,-3.888 2.67,-6.408 z m -631.13,0 c 0,-2.52 -0.86,-4.608 -2.66,-6.408 -1.8,-1.8 -3.89,-2.736 -6.41,-2.736 -2.52,0 -4.75,0.936 -6.55,2.736 -1.8,1.8 -2.66,3.888 -2.66,6.408 0,2.52 0.86,4.608 2.66,6.408 1.8,1.8 4.03,2.736 6.55,2.736 2.52,0 4.61,-0.936 6.41,-2.736 1.8,-1.8 2.66,-3.888 2.66,-6.408 z m -788.62,-27 c 0,-2.52 -0.87,-4.608 -2.67,-6.408 -1.8,-1.8 -3.88,-2.736 -6.4,-2.736 -2.52,0 -4.76,0.936 -6.56,2.736 -1.8,1.8 -2.66,3.888 -2.66,6.408 0,2.52 0.86,4.608 2.66,6.408 1.8,1.8 4.04,2.736 6.56,2.736 2.52,0 4.6,-0.936 6.4,-2.736 1.8,-1.8 2.67,-3.888 2.67,-6.408 z m -1103.63,18 c 0,-2.52 -0.86,-4.608 -2.66,-6.408 -1.8,-1.8 -3.89,-2.736 -6.41,-2.736 -2.52,0 -4.75,0.936 -6.55,2.736 -1.8,1.8 -2.66,3.888 -2.66,6.408 0,2.52 0.86,4.608 2.66,6.408 1.8,1.8 4.03,2.736 6.55,2.736 2.52,0 4.61,-0.936 6.41,-2.736 1.8,-1.8 2.66,-3.888 2.66,-6.408 z m -315.56,0 c 0,-2.52 -0.86,-4.608 -2.66,-6.408 -1.8,-1.8 -3.89,-2.736 -6.41,-2.736 -2.52,0 -4.75,0.936 -6.55,2.736 -1.8,1.8 -2.67,3.888 -2.67,6.408 0,2.52 0.87,4.608 2.67,6.408 1.8,1.8 4.03,2.736 6.55,2.736 2.52,0 4.61,-0.936 6.41,-2.736 1.8,-1.8 2.66,-3.888 2.66,-6.408 z m -236.81,9 c 0,-2.52 -0.87,-4.608 -2.67,-6.408 -1.8,-1.8 -3.88,-2.736 -6.4,-2.736 -2.52,0 -4.76,0.936 -6.56,2.736 -1.8,1.8 -2.66,3.888 -2.66,6.408 0,2.52 0.86,4.608 2.66,6.408 1.8,1.8 4.04,2.736 6.56,2.736 2.52,0 4.6,-0.936 6.4,-2.736 1.8,-1.8 2.67,-3.888 2.67,-6.408 z m -788.06,0 c 0,-2.52 -0.87,-4.608 -2.67,-6.408 -1.8,-1.8 -3.89,-2.736 -6.41,-2.736 -2.52,0 -4.75,0.936 -6.55,2.736 -1.8,1.8 -2.66,3.888 -2.66,6.408 0,2.52 0.86,4.608 2.66,6.408 1.8,1.8 4.03,2.736 6.55,2.736 2.52,0 4.61,-0.936 6.41,-2.736 1.8,-1.8 2.67,-3.888 2.67,-6.408 z m -552.38,-27 c 0,-2.52 -0.86,-4.608 -2.66,-6.408 -1.8,-1.8 -3.89,-2.736 -6.41,-2.736 -2.52,0 -4.75,0.936 -6.55,2.736 -1.8,1.8 -2.67,3.888 -2.67,6.408 0,2.52 0.87,4.608 2.67,6.408 1.8,1.8 4.03,2.736 6.55,2.736 2.52,0 4.61,-0.936 6.41,-2.736 1.8,-1.8 2.66,-3.888 2.66,-6.408 z m -2207.81,9 c 0,-2.52 -0.87,-4.608 -2.67,-6.408 -1.8,-1.8 -3.88,-2.736 -6.4,-2.736 -2.52,0 -4.76,0.936 -6.56,2.736 -1.8,1.8 -2.66,3.888 -2.66,6.408 0,2.52 0.86,4.608 2.66,6.408 1.8,1.8 4.04,2.736 6.56,2.736 2.52,0 4.6,-0.936 6.4,-2.736 1.8,-1.8 2.67,-3.888 2.67,-6.408 z m -78.75,0 c 0,-2.52 -0.87,-4.608 -2.67,-6.408 -1.8,-1.8 -3.88,-2.736 -6.4,-2.736 -2.52,0 -4.76,0.936 -6.56,2.736 -1.8,1.8 -2.66,3.888 -2.66,6.408 0,2.52 0.86,4.608 2.66,6.408 1.8,1.8 4.04,2.736 6.56,2.736 2.52,0 4.6,-0.936 6.4,-2.736 1.8,-1.8 2.67,-3.888 2.67,-6.408 z m -552.38,9 c 0,-2.52 -0.86,-4.608 -2.66,-6.408 -1.8,-1.8 -3.89,-2.736 -6.41,-2.736 -2.52,0 -4.75,0.936 -6.55,2.736 -1.8,1.8 -2.66,3.888 -2.66,6.408 0,2.52 0.86,4.608 2.66,6.408 1.8,1.8 4.03,2.736 6.55,2.736 2.52,0 4.61,-0.936 6.41,-2.736 1.8,-1.8 2.66,-3.888 2.66,-6.408 z m -946.12,0 c 0,-2.52 -0.87,-4.608 -2.67,-6.408 -1.8,-1.8 -3.88,-2.736 -6.4,-2.736 -2.52,0 -4.76,0.936 -6.56,2.736 -1.8,1.8 -2.66,3.888 -2.66,6.408 0,2.52 0.86,4.608 2.66,6.408 1.8,1.8 4.04,2.736 6.56,2.736 2.52,0 4.6,-0.936 6.4,-2.736 1.8,-1.8 2.67,-3.888 2.67,-6.408 z m -157.5,0 c 0,-2.52 -0.87,-4.608 -2.67,-6.408 -1.8,-1.8 -3.88,-2.736 -6.4,-2.736 -2.52,0 -4.76,0.936 -6.56,2.736 -1.8,1.8 -2.66,3.888 -2.66,6.408 0,2.52 0.86,4.608 2.66,6.408 1.8,1.8 4.04,2.736 6.56,2.736 2.52,0 4.6,-0.936 6.4,-2.736 1.8,-1.8 2.67,-3.888 2.67,-6.408 z m -1734.75,-9 c 0,-2.52 -0.87,-4.608 -2.67,-6.408 -1.8,-1.8 -3.88,-2.736 -6.4,-2.736 -2.52,0 -4.76,0.936 -6.56,2.736 -1.8,1.8 -2.66,3.888 -2.66,6.408 0,2.52 0.86,4.608 2.66,6.408 1.8,1.8 4.04,2.736 6.56,2.736 2.52,0 4.6,-0.936 6.4,-2.736 1.8,-1.8 2.67,-3.888 2.67,-6.408 z m -631.13,9 c 0,-2.52 -0.86,-4.608 -2.66,-6.408 -1.8,-1.8 -3.89,-2.736 -6.41,-2.736 -2.52,0 -4.75,0.936 -6.55,2.736 -1.8,1.8 -2.66,3.888 -2.66,6.408 0,2.52 0.86,4.608 2.66,6.408 1.8,1.8 4.03,2.736 6.55,2.736 2.52,0 4.61,-0.936 6.41,-2.736 1.8,-1.8 2.66,-3.888 2.66,-6.408 z m -946.12,0 c 0,-2.52 -0.87,-4.608 -2.67,-6.408 -1.8,-1.8 -3.88,-2.736 -6.4,-2.736 -2.52,0 -4.76,0.936 -6.56,2.736 -1.8,1.8 -2.66,3.888 -2.66,6.408 0,2.52 0.86,4.608 2.66,6.408 1.8,1.8 4.04,2.736 6.56,2.736 2.52,0 4.6,-0.936 6.4,-2.736 1.8,-1.8 2.67,-3.888 2.67,-6.408 z m -978.75,-9 c 0,-2.52 -0.87,-4.608 -2.67,-6.408 -1.8,-1.8 -3.88,-2.736 -6.4,-2.736 -2.52,0 -4.76,0.936 -6.56,2.736 -1.8,1.8 -2.66,3.888 -2.66,6.408 0,2.52 0.86,4.608 2.66,6.408 1.8,1.8 4.04,2.736 6.56,2.736 2.52,0 4.6,-0.936 6.4,-2.736 1.8,-1.8 2.67,-3.888 2.67,-6.408 z m -315.56,0 c 0,-2.52 -0.87,-4.608 -2.67,-6.408 -1.8,-1.8 -3.89,-2.736 -6.41,-2.736 -2.52,0 -4.75,0.936 -6.55,2.736 -1.8,1.8 -2.66,3.888 -2.66,6.408 0,2.52 0.86,4.608 2.66,6.408 1.8,1.8 4.03,2.736 6.55,2.736 2.52,0 4.61,-0.936 6.41,-2.736 1.8,-1.8 2.67,-3.888 2.67,-6.408 z m -1340.44,9 c 0,-2.52 -0.87,-4.608 -2.67,-6.408 -1.8,-1.8 -3.88,-2.736 -6.4,-2.736 -2.52,0 -4.76,0.936 -6.56,2.736 -1.8,1.8 -2.66,3.888 -2.66,6.408 0,2.52 0.86,4.608 2.66,6.408 1.8,1.8 4.04,2.736 6.56,2.736 2.52,0 4.6,-0.936 6.4,-2.736 1.8,-1.8 2.67,-3.888 2.67,-6.408 z m -551.81,-9 c 0,-2.52 -0.87,-4.608 -2.67,-6.408 -1.8,-1.8 -3.89,-2.736 -6.41,-2.736 -2.52,0 -4.75,0.936 -6.55,2.736 -1.8,1.8 -2.66,3.888 -2.66,6.408 0,2.52 0.86,4.608 2.66,6.408 1.8,1.8 4.03,2.736 6.55,2.736 2.52,0 4.61,-0.936 6.41,-2.736 1.8,-1.8 2.67,-3.888 2.67,-6.408 z m -315.57,0 c 0,-2.52 -0.86,-4.608 -2.66,-6.408 -1.8,-1.8 -3.89,-2.736 -6.41,-2.736 -2.52,0 -4.75,0.936 -6.55,2.736 -1.8,1.8 -2.66,3.888 -2.66,6.408 0,2.52 0.86,4.608 2.66,6.408 1.8,1.8 4.03,2.736 6.55,2.736 2.52,0 4.61,-0.936 6.41,-2.736 1.8,-1.8 2.66,-3.888 2.66,-6.408 z m -631.12,9 c 0,-2.52 -0.87,-4.608 -2.67,-6.408 -1.8,-1.8 -3.88,-2.736 -6.4,-2.736 -2.52,0 -4.76,0.936 -6.56,2.736 -1.8,1.8 -2.66,3.888 -2.66,6.408 0,2.52 0.86,4.608 2.66,6.408 1.8,1.8 4.04,2.736 6.56,2.736 2.52,0 4.6,-0.936 6.4,-2.736 1.8,-1.8 2.67,-3.888 2.67,-6.408 z m -946.13,0 c 0,-2.52 -0.86,-4.608 -2.66,-6.408 -1.8,-1.8 -3.89,-2.736 -6.41,-2.736 -2.52,0 -4.75,0.936 -6.55,2.736 -1.8,1.8 -2.66,3.888 -2.66,6.408 0,2.52 0.86,4.608 2.66,6.408 1.8,1.8 4.03,2.736 6.55,2.736 2.52,0 4.61,-0.936 6.41,-2.736 1.8,-1.8 2.66,-3.888 2.66,-6.408 z m -4345.87,-18 c 0,-2.52 -0.87,-4.608 -2.67,-6.408 -1.8,-1.8 -3.88,-2.736 -6.4,-2.736 -2.52,0 -4.76,0.936 -6.56,2.736 -1.8,1.8 -2.66,3.888 -2.66,6.408 0,2.52 0.86,4.608 2.66,6.408 1.8,1.8 4.04,2.736 6.56,2.736 2.52,0 4.6,-0.936 6.4,-2.736 1.8,-1.8 2.67,-3.888 2.67,-6.408 z m -1971.56,-18 c 0,-2.52 -0.87,-4.608 -2.67,-6.408 -1.8,-1.8 -3.89,-2.736 -6.41,-2.736 -2.52,0 -4.75,0.936 -6.55,2.736 -1.8,1.8 -2.66,3.888 -2.66,6.408 0,2.52 0.86,4.608 2.66,6.408 1.8,1.8 4.03,2.736 6.55,2.736 2.52,0 4.61,-0.936 6.41,-2.736 1.8,-1.8 2.67,-3.888 2.67,-6.408 z m 0,198 c 0,-2.52 -0.87,-4.608 -2.67,-6.408 -1.8,-1.8 -3.89,-2.736 -6.41,-2.736 -2.52,0 -4.75,0.936 -6.55,2.736 -1.8,1.8 -2.66,3.888 -2.66,6.408 0,2.52 0.86,4.608 2.66,6.408 1.8,1.8 4.03,2.736 6.55,2.736 2.52,0 4.61,-0.936 6.41,-2.736 1.8,-1.8 2.67,-3.888 2.67,-6.408 z m -417.94,-180 c 0,-2.52 -0.87,-4.608 -2.67,-6.408 -1.8,-1.8 -3.88,-2.736 -6.4,-2.736 -2.52,0 -4.76,0.936 -6.56,2.736 -1.8,1.8 -2.66,3.888 -2.66,6.408 0,2.52 0.86,4.608 2.66,6.408 1.8,1.8 4.04,2.736 6.56,2.736 2.52,0 4.6,-0.936 6.4,-2.736 1.8,-1.8 2.67,-3.888 2.67,-6.408 z m 0,180 c 0,-2.52 -0.87,-4.608 -2.67,-6.408 -1.8,-1.8 -3.88,-2.736 -6.4,-2.736 -2.52,0 -4.76,0.936 -6.56,2.736 -1.8,1.8 -2.66,3.888 -2.66,6.408 0,2.52 0.86,4.608 2.66,6.408 1.8,1.8 4.04,2.736 6.56,2.736 2.52,0 4.6,-0.936 6.4,-2.736 1.8,-1.8 2.67,-3.888 2.67,-6.408 z m -236.25,-180 c 0,-2.52 -0.87,-4.608 -2.67,-6.408 -1.8,-1.8 -3.88,-2.736 -6.4,-2.736 -2.52,0 -4.76,0.936 -6.56,2.736 -1.8,1.8 -2.66,3.888 -2.66,6.408 0,2.52 0.86,4.608 2.66,6.408 1.8,1.8 4.04,2.736 6.56,2.736 2.52,0 4.6,-0.936 6.4,-2.736 1.8,-1.8 2.67,-3.888 2.67,-6.408 z m -315.56,-27 c 0,-2.52 -0.87,-4.608 -2.67,-6.408 -1.8,-1.8 -3.89,-2.736 -6.41,-2.736 -2.52,0 -4.75,0.936 -6.55,2.736 -1.8,1.8 -2.66,3.888 -2.66,6.408 0,2.52 0.86,4.608 2.66,6.408 1.8,1.8 4.03,2.736 6.55,2.736 2.52,0 4.61,-0.936 6.41,-2.736 1.8,-1.8 2.67,-3.888 2.67,-6.408 z m 0,207 c 0,-2.52 -0.87,-4.608 -2.67,-6.408 -1.8,-1.8 -3.89,-2.736 -6.41,-2.736 -2.52,0 -4.75,0.936 -6.55,2.736 -1.8,1.8 -2.66,3.888 -2.66,6.408 0,2.52 0.86,4.608 2.66,6.408 1.8,1.8 4.03,2.736 6.55,2.736 2.52,0 4.61,-0.936 6.41,-2.736 1.8,-1.8 2.67,-3.888 2.67,-6.408 z m -315.57,-207 c 0,-2.52 -0.86,-4.608 -2.66,-6.408 -1.8,-1.8 -3.89,-2.736 -6.41,-2.736 -2.52,0 -4.75,0.936 -6.55,2.736 -1.8,1.8 -2.66,3.888 -2.66,6.408 0,2.52 0.86,4.608 2.66,6.408 1.8,1.8 4.03,2.736 6.55,2.736 2.52,0 4.61,-0.936 6.41,-2.736 1.8,-1.8 2.66,-3.888 2.66,-6.408 z m -946.12,-9 c 0,-2.52 -0.87,-4.608 -2.67,-6.408 -1.8,-1.8 -3.88,-2.736 -6.4,-2.736 -2.52,0 -4.76,0.936 -6.56,2.736 -1.8,1.8 -2.66,3.888 -2.66,6.408 0,2.52 0.86,4.608 2.66,6.408 1.8,1.8 4.04,2.736 6.56,2.736 2.52,0 4.6,-0.936 6.4,-2.736 1.8,-1.8 2.67,-3.888 2.67,-6.408 z m -551.81,-9 c 0,-2.52 -0.87,-4.608 -2.67,-6.408 -1.8,-1.8 -3.89,-2.736 -6.41,-2.736 -2.52,0 -4.75,0.936 -6.55,2.736 -1.8,1.8 -2.66,3.888 -2.66,6.408 0,2.52 0.86,4.608 2.66,6.408 1.8,1.8 4.03,2.736 6.55,2.736 2.52,0 4.61,-0.936 6.41,-2.736 1.8,-1.8 2.67,-3.888 2.67,-6.408 z m 0,225 c 0,-2.52 -0.87,-4.608 -2.67,-6.408 -1.8,-1.8 -3.89,-2.736 -6.41,-2.736 -2.52,0 -4.75,0.936 -6.55,2.736 -1.8,1.8 -2.66,3.888 -2.66,6.408 0,2.52 0.86,4.608 2.66,6.408 1.8,1.8 4.03,2.736 6.55,2.736 2.52,0 4.61,-0.936 6.41,-2.736 1.8,-1.8 2.67,-3.888 2.67,-6.408 z m -2307.94,-153 c 0,-2.52 -0.87,-4.608 -2.67,-6.408 -1.8,-1.8 -3.88,-2.736 -6.4,-2.736 -2.52,0 -4.76,0.936 -6.56,2.736 -1.8,1.8 -2.66,3.888 -2.66,6.408 0,2.52 0.86,4.608 2.66,6.408 1.8,1.8 4.04,2.736 6.56,2.736 2.52,0 4.6,-0.936 6.4,-2.736 1.8,-1.8 2.67,-3.888 2.67,-6.408 z m 0,-63 c 0,-2.52 -0.87,-4.608 -2.67,-6.408 -1.8,-1.8 -3.88,-2.736 -6.4,-2.736 -2.52,0 -4.76,0.936 -6.56,2.736 -1.8,1.8 -2.66,3.888 -2.66,6.408 0,2.52 0.86,4.608 2.66,6.408 1.8,1.8 4.04,2.736 6.56,2.736 2.52,0 4.6,-0.936 6.4,-2.736 1.8,-1.8 2.67,-3.888 2.67,-6.408 z m -315,63 c 0,-2.52 -0.87,-4.608 -2.67,-6.408 -1.8,-1.8 -3.88,-2.736 -6.4,-2.736 -2.52,0 -4.76,0.936 -6.56,2.736 -1.8,1.8 -2.66,3.888 -2.66,6.408 0,2.52 0.86,4.608 2.66,6.408 1.8,1.8 4.04,2.736 6.56,2.736 2.52,0 4.6,-0.936 6.4,-2.736 1.8,-1.8 2.67,-3.888 2.67,-6.408 z m 0,-63 c 0,-2.52 -0.87,-4.608 -2.67,-6.408 -1.8,-1.8 -3.88,-2.736 -6.4,-2.736 -2.52,0 -4.76,0.936 -6.56,2.736 -1.8,1.8 -2.66,3.888 -2.66,6.408 0,2.52 0.86,4.608 2.66,6.408 1.8,1.8 4.04,2.736 6.56,2.736 2.52,0 4.6,-0.936 6.4,-2.736 1.8,-1.8 2.67,-3.888 2.67,-6.408 z m -473.06,72 c 0,-2.52 -0.87,-4.608 -2.67,-6.408 -1.8,-1.8 -3.89,-2.736 -6.41,-2.736 -2.52,0 -4.75,0.936 -6.55,2.736 -1.8,1.8 -2.66,3.888 -2.66,6.408 0,2.52 0.86,4.608 2.66,6.408 1.8,1.8 4.03,2.736 6.55,2.736 2.52,0 4.61,-0.936 6.41,-2.736 1.8,-1.8 2.67,-3.888 2.67,-6.408 z m 0,-27 c 0,-2.52 -0.87,-4.608 -2.67,-6.408 -1.8,-1.8 -3.89,-2.736 -6.41,-2.736 -2.52,0 -4.75,0.936 -6.55,2.736 -1.8,1.8 -2.66,3.888 -2.66,6.408 0,2.52 0.86,4.608 2.66,6.408 1.8,1.8 4.03,2.736 6.55,2.736 2.52,0 4.61,-0.936 6.41,-2.736 1.8,-1.8 2.67,-3.888 2.67,-6.408 z m 0,-36 c 0,-2.52 -0.87,-4.608 -2.67,-6.408 -1.8,-1.8 -3.89,-2.736 -6.41,-2.736 -2.52,0 -4.75,0.936 -6.55,2.736 -1.8,1.8 -2.66,3.888 -2.66,6.408 0,2.52 0.86,4.608 2.66,6.408 1.8,1.8 4.03,2.736 6.55,2.736 2.52,0 4.61,-0.936 6.41,-2.736 1.8,-1.8 2.67,-3.888 2.67,-6.408 z m -1419.75,63 c 0,-2.52 -0.87,-4.608 -2.67,-6.408 -1.8,-1.8 -3.89,-2.736 -6.41,-2.736 -2.52,0 -4.75,0.936 -6.55,2.736 -1.8,1.8 -2.66,3.888 -2.66,6.408 0,2.52 0.86,4.608 2.66,6.408 1.8,1.8 4.03,2.736 6.55,2.736 2.52,0 4.61,-0.936 6.41,-2.736 1.8,-1.8 2.67,-3.888 2.67,-6.408 z m -315.57,0 c 0,-2.52 -0.86,-4.608 -2.66,-6.408 -1.8,-1.8 -3.89,-2.736 -6.41,-2.736 -2.52,0 -4.75,0.936 -6.55,2.736 -1.8,1.8 -2.66,3.888 -2.66,6.408 0,2.52 0.86,4.608 2.66,6.408 1.8,1.8 4.03,2.736 6.55,2.736 2.52,0 4.61,-0.936 6.41,-2.736 1.8,-1.8 2.66,-3.888 2.66,-6.408 z m -344.25,9 c 0,-2.52 -0.86,-4.608 -2.66,-6.408 -1.8,-1.8 -3.89,-2.736 -6.41,-2.736 -2.52,0 -4.75,0.936 -6.55,2.736 -1.8,1.8 -2.66,3.888 -2.66,6.408 0,2.52 0.86,4.608 2.66,6.408 1.8,1.8 4.03,2.736 6.55,2.736 2.52,0 4.61,-0.936 6.41,-2.736 1.8,-1.8 2.66,-3.888 2.66,-6.408 z m -1695.37,-9 c 0,-2.52 -0.87,-4.608 -2.67,-6.408 -1.8,-1.8 -3.88,-2.736 -6.4,-2.736 -2.52,0 -4.76,0.936 -6.56,2.736 -1.8,1.8 -2.66,3.888 -2.66,6.408 0,2.52 0.86,4.608 2.66,6.408 1.8,1.8 4.04,2.736 6.56,2.736 2.52,0 4.6,-0.936 6.4,-2.736 1.8,-1.8 2.67,-3.888 2.67,-6.408 z m -197.44,0 c 0,-2.52 -0.86,-4.608 -2.66,-6.408 -1.8,-1.8 -3.89,-2.736 -6.41,-2.736 -2.52,0 -4.75,0.936 -6.55,2.736 -1.8,1.8 -2.67,3.888 -2.67,6.408 0,2.52 0.87,4.608 2.67,6.408 1.8,1.8 4.03,2.736 6.55,2.736 2.52,0 4.61,-0.936 6.41,-2.736 1.8,-1.8 2.66,-3.888 2.66,-6.408 z m -315,9 c 0,-2.52 -0.86,-4.608 -2.66,-6.408 -1.8,-1.8 -3.89,-2.736 -6.41,-2.736 -2.52,0 -4.75,0.936 -6.55,2.736 -1.8,1.8 -2.67,3.888 -2.67,6.408 0,2.52 0.87,4.608 2.67,6.408 1.8,1.8 4.03,2.736 6.55,2.736 2.52,0 4.61,-0.936 6.41,-2.736 1.8,-1.8 2.66,-3.888 2.66,-6.408 z m -315.56,0 c 0,-2.52 -0.87,-4.608 -2.67,-6.408 -1.8,-1.8 -3.88,-2.736 -6.4,-2.736 -2.52,0 -4.76,0.936 -6.56,2.736 -1.8,1.8 -2.66,3.888 -2.66,6.408 0,2.52 0.86,4.608 2.66,6.408 1.8,1.8 4.04,2.736 6.56,2.736 2.52,0 4.6,-0.936 6.4,-2.736 1.8,-1.8 2.67,-3.888 2.67,-6.408 z m -236.81,0 c 0,-2.52 -0.87,-4.608 -2.67,-6.408 -1.8,-1.8 -3.89,-2.736 -6.41,-2.736 -2.52,0 -4.75,0.936 -6.55,2.736 -1.8,1.8 -2.66,3.888 -2.66,6.408 0,2.52 0.86,4.608 2.66,6.408 1.8,1.8 4.03,2.736 6.55,2.736 2.52,0 4.61,-0.936 6.41,-2.736 1.8,-1.8 2.67,-3.888 2.67,-6.408 z m -394.32,-18 c 0,-2.52 -0.86,-4.608 -2.66,-6.408 -1.8,-1.8 -3.89,-2.736 -6.41,-2.736 -2.52,0 -4.75,0.936 -6.55,2.736 -1.8,1.8 -2.66,3.888 -2.66,6.408 0,2.52 0.86,4.608 2.66,6.408 1.8,1.8 4.03,2.736 6.55,2.736 2.52,0 4.61,-0.936 6.41,-2.736 1.8,-1.8 2.66,-3.888 2.66,-6.408 z m -473.06,-9 c 0,-2.52 -0.86,-4.608 -2.66,-6.408 -1.8,-1.8 -3.89,-2.736 -6.41,-2.736 -2.52,0 -4.75,0.936 -6.55,2.736 -1.8,1.8 -2.67,3.888 -2.67,6.408 0,2.52 0.87,4.608 2.67,6.408 1.8,1.8 4.03,2.736 6.55,2.736 2.52,0 4.61,-0.936 6.41,-2.736 1.8,-1.8 2.66,-3.888 2.66,-6.408 z m -1734.75,18 c 0,-2.52 -0.86,-4.608 -2.66,-6.408 -1.8,-1.8 -3.89,-2.736 -6.41,-2.736 -2.52,0 -4.75,0.936 -6.55,2.736 -1.8,1.8 -2.67,3.888 -2.67,6.408 0,2.52 0.87,4.608 2.67,6.408 1.8,1.8 4.03,2.736 6.55,2.736 2.52,0 4.61,-0.936 6.41,-2.736 1.8,-1.8 2.66,-3.888 2.66,-6.408 z m -157.5,0 c 0,-2.52 -0.86,-4.608 -2.66,-6.408 -1.8,-1.8 -3.89,-2.736 -6.41,-2.736 -2.52,0 -4.75,0.936 -6.55,2.736 -1.8,1.8 -2.67,3.888 -2.67,6.408 0,2.52 0.87,4.608 2.67,6.408 1.8,1.8 4.03,2.736 6.55,2.736 2.52,0 4.61,-0.936 6.41,-2.736 1.8,-1.8 2.66,-3.888 2.66,-6.408 z m -473.06,9 c 0,-2.52 -0.87,-4.608 -2.67,-6.408 -1.8,-1.8 -3.88,-2.736 -6.4,-2.736 -2.52,0 -4.76,0.936 -6.56,2.736 -1.8,1.8 -2.66,3.888 -2.66,6.408 0,2.52 0.86,4.608 2.66,6.408 1.8,1.8 4.04,2.736 6.56,2.736 2.52,0 4.6,-0.936 6.4,-2.736 1.8,-1.8 2.67,-3.888 2.67,-6.408 z m -236.81,0 c 0,-2.52 -0.87,-4.608 -2.67,-6.408 -1.8,-1.8 -3.89,-2.736 -6.41,-2.736 -2.52,0 -4.75,0.936 -6.55,2.736 -1.8,1.8 -2.66,3.888 -2.66,6.408 0,2.52 0.86,4.608 2.66,6.408 1.8,1.8 4.03,2.736 6.55,2.736 2.52,0 4.61,-0.936 6.41,-2.736 1.8,-1.8 2.67,-3.888 2.67,-6.408 z m -394.32,-18 c 0,-2.52 -0.86,-4.608 -2.66,-6.408 -1.8,-1.8 -3.89,-2.736 -6.41,-2.736 -2.52,0 -4.75,0.936 -6.55,2.736 -1.8,1.8 -2.66,3.888 -2.66,6.408 0,2.52 0.86,4.608 2.66,6.408 1.8,1.8 4.03,2.736 6.55,2.736 2.52,0 4.61,-0.936 6.41,-2.736 1.8,-1.8 2.66,-3.888 2.66,-6.408 z m -551.81,-9 c 0,-2.52 -0.86,-4.608 -2.66,-6.408 -1.8,-1.8 -3.89,-2.736 -6.41,-2.736 -2.52,0 -4.75,0.936 -6.55,2.736 -1.8,1.8 -2.67,3.888 -2.67,6.408 0,2.52 0.87,4.608 2.67,6.408 1.8,1.8 4.03,2.736 6.55,2.736 2.52,0 4.61,-0.936 6.41,-2.736 1.8,-1.8 2.66,-3.888 2.66,-6.408 z m -1973.81,18 c 0,-2.52 -0.87,-4.608 -2.67,-6.408 -1.8,-1.8 -3.88,-2.736 -6.4,-2.736 -2.52,0 -4.76,0.936 -6.56,2.736 -1.8,1.8 -2.66,3.888 -2.66,6.408 0,2.52 0.86,4.608 2.66,6.408 1.8,1.8 4.04,2.736 6.56,2.736 2.52,0 4.6,-0.936 6.4,-2.736 1.8,-1.8 2.67,-3.888 2.67,-6.408 z m -78.75,0 c 0,-2.52 -0.87,-4.608 -2.67,-6.408 -1.8,-1.8 -3.88,-2.736 -6.4,-2.736 -2.52,0 -4.76,0.936 -6.56,2.736 -1.8,1.8 -2.66,3.888 -2.66,6.408 0,2.52 0.86,4.608 2.66,6.408 1.8,1.8 4.04,2.736 6.56,2.736 2.52,0 4.6,-0.936 6.4,-2.736 1.8,-1.8 2.67,-3.888 2.67,-6.408 z m -236.81,9 c 0,-2.52 -0.87,-4.608 -2.67,-6.408 -1.8,-1.8 -3.89,-2.736 -6.41,-2.736 -2.52,0 -4.75,0.936 -6.55,2.736 -1.8,1.8 -2.66,3.888 -2.66,6.408 0,2.52 0.86,4.608 2.66,6.408 1.8,1.8 4.03,2.736 6.55,2.736 2.52,0 4.61,-0.936 6.41,-2.736 1.8,-1.8 2.67,-3.888 2.67,-6.408 z m -315,0 c 0,-2.52 -0.87,-4.608 -2.67,-6.408 -1.8,-1.8 -3.89,-2.736 -6.41,-2.736 -2.52,0 -4.75,0.936 -6.55,2.736 -1.8,1.8 -2.66,3.888 -2.66,6.408 0,2.52 0.86,4.608 2.66,6.408 1.8,1.8 4.03,2.736 6.55,2.736 2.52,0 4.61,-0.936 6.41,-2.736 1.8,-1.8 2.67,-3.888 2.67,-6.408 z m -473.07,-18 c 0,-2.52 -0.86,-4.608 -2.66,-6.408 -1.8,-1.8 -3.89,-2.736 -6.41,-2.736 -2.52,0 -4.75,0.936 -6.55,2.736 -1.8,1.8 -2.66,3.888 -2.66,6.408 0,2.52 0.86,4.608 2.66,6.408 1.8,1.8 4.03,2.736 6.55,2.736 2.52,0 4.61,-0.936 6.41,-2.736 1.8,-1.8 2.66,-3.888 2.66,-6.408 z m -315.56,-9 c 0,-2.52 -0.86,-4.608 -2.66,-6.408 -1.8,-1.8 -3.89,-2.736 -6.41,-2.736 -2.52,0 -4.75,0.936 -6.55,2.736 -1.8,1.8 -2.67,3.888 -2.67,6.408 0,2.52 0.87,4.608 2.67,6.408 1.8,1.8 4.03,2.736 6.55,2.736 2.52,0 4.61,-0.936 6.41,-2.736 1.8,-1.8 2.66,-3.888 2.66,-6.408 z m -2050.31,18 c 0,-2.52 -0.87,-4.608 -2.67,-6.408 -1.8,-1.8 -3.88,-2.736 -6.4,-2.736 -2.52,0 -4.76,0.936 -6.56,2.736 -1.8,1.8 -2.66,3.888 -2.66,6.408 0,2.52 0.86,4.608 2.66,6.408 1.8,1.8 4.04,2.736 6.56,2.736 2.52,0 4.6,-0.936 6.4,-2.736 1.8,-1.8 2.67,-3.888 2.67,-6.408 z m -157.5,0 c 0,-2.52 -0.87,-4.608 -2.67,-6.408 -1.8,-1.8 -3.88,-2.736 -6.4,-2.736 -2.52,0 -4.76,0.936 -6.56,2.736 -1.8,1.8 -2.66,3.888 -2.66,6.408 0,2.52 0.86,4.608 2.66,6.408 1.8,1.8 4.04,2.736 6.56,2.736 2.52,0 4.6,-0.936 6.4,-2.736 1.8,-1.8 2.67,-3.888 2.67,-6.408 z m -315.56,9 c 0,-2.52 -0.87,-4.608 -2.67,-6.408 -1.8,-1.8 -3.89,-2.736 -6.41,-2.736 -2.52,0 -4.75,0.936 -6.55,2.736 -1.8,1.8 -2.66,3.888 -2.66,6.408 0,2.52 0.86,4.608 2.66,6.408 1.8,1.8 4.03,2.736 6.55,2.736 2.52,0 4.61,-0.936 6.41,-2.736 1.8,-1.8 2.67,-3.888 2.67,-6.408 z m -315.57,0 c 0,-2.52 -0.86,-4.608 -2.66,-6.408 -1.8,-1.8 -3.89,-2.736 -6.41,-2.736 -2.52,0 -4.75,0.936 -6.55,2.736 -1.8,1.8 -2.66,3.888 -2.66,6.408 0,2.52 0.86,4.608 2.66,6.408 1.8,1.8 4.03,2.736 6.55,2.736 2.52,0 4.61,-0.936 6.41,-2.736 1.8,-1.8 2.66,-3.888 2.66,-6.408 z m -788.62,-27 c 0,-2.52 -0.87,-4.608 -2.67,-6.408 -1.8,-1.8 -3.88,-2.736 -6.4,-2.736 -2.52,0 -4.76,0.936 -6.56,2.736 -1.8,1.8 -2.66,3.888 -2.66,6.408 0,2.52 0.86,4.608 2.66,6.408 1.8,1.8 4.04,2.736 6.56,2.736 2.52,0 4.6,-0.936 6.4,-2.736 1.8,-1.8 2.67,-3.888 2.67,-6.408 z m -1577.25,18 c 0,-2.52 -0.87,-4.608 -2.67,-6.408 -1.8,-1.8 -3.88,-2.736 -6.4,-2.736 -2.52,0 -4.76,0.936 -6.56,2.736 -1.8,1.8 -2.66,3.888 -2.66,6.408 0,2.52 0.86,4.608 2.66,6.408 1.8,1.8 4.04,2.736 6.56,2.736 2.52,0 4.6,-0.936 6.4,-2.736 1.8,-1.8 2.67,-3.888 2.67,-6.408 z m -236.25,0 c 0,-2.52 -0.87,-4.608 -2.67,-6.408 -1.8,-1.8 -3.88,-2.736 -6.4,-2.736 -2.52,0 -4.76,0.936 -6.56,2.736 -1.8,1.8 -2.66,3.888 -2.66,6.408 0,2.52 0.86,4.608 2.66,6.408 1.8,1.8 4.04,2.736 6.56,2.736 2.52,0 4.6,-0.936 6.4,-2.736 1.8,-1.8 2.67,-3.888 2.67,-6.408 z m -394.31,9 c 0,-2.52 -0.87,-4.608 -2.67,-6.408 -1.8,-1.8 -3.89,-2.736 -6.41,-2.736 -2.52,0 -4.75,0.936 -6.55,2.736 -1.8,1.8 -2.66,3.888 -2.66,6.408 0,2.52 0.86,4.608 2.66,6.408 1.8,1.8 4.03,2.736 6.55,2.736 2.52,0 4.61,-0.936 6.41,-2.736 1.8,-1.8 2.67,-3.888 2.67,-6.408 z m -236.82,0 c 0,-2.52 -0.86,-4.608 -2.66,-6.408 -1.8,-1.8 -3.89,-2.736 -6.41,-2.736 -2.52,0 -4.75,0.936 -6.55,2.736 -1.8,1.8 -2.66,3.888 -2.66,6.408 0,2.52 0.86,4.608 2.66,6.408 1.8,1.8 4.03,2.736 6.55,2.736 2.52,0 4.61,-0.936 6.41,-2.736 1.8,-1.8 2.66,-3.888 2.66,-6.408 z m -709.31,-27 c 0,-2.52 -0.86,-4.608 -2.66,-6.408 -1.8,-1.8 -3.89,-2.736 -6.41,-2.736 -2.52,0 -4.75,0.936 -6.55,2.736 -1.8,1.8 -2.67,3.888 -2.67,6.408 0,2.52 0.87,4.608 2.67,6.408 1.8,1.8 4.03,2.736 6.55,2.736 2.52,0 4.61,-0.936 6.41,-2.736 1.8,-1.8 2.66,-3.888 2.66,-6.408 z m -17692.87,-117 c 0,-2.52 -0.87,-4.608 -2.67,-6.408 -1.8,-1.8 -3.89,-2.736 -6.41,-2.736 -2.52,0 -4.75,0.936 -6.55,2.736 -1.8,1.8 -2.66,3.888 -2.66,6.408 0,2.52 0.86,4.608 2.66,6.408 1.8,1.8 4.03,2.736 6.55,2.736 2.52,0 4.61,-0.936 6.41,-2.736 1.8,-1.8 2.67,-3.888 2.67,-6.408 z m -7617.94,63 c 0,-2.52 -0.87,-4.608 -2.67,-6.408 -1.8,-1.8 -3.88,-2.736 -6.4,-2.736 -2.52,0 -4.76,0.936 -6.56,2.736 -1.8,1.8 -2.66,3.888 -2.66,6.408 0,2.52 0.86,4.608 2.66,6.408 1.8,1.8 4.04,2.736 6.56,2.736 2.52,0 4.6,-0.936 6.4,-2.736 1.8,-1.8 2.67,-3.888 2.67,-6.408 z m -5063.63,63 c 0,-2.52 -0.86,-4.608 -2.66,-6.408 -1.8,-1.8 -3.89,-2.736 -6.41,-2.736 -2.52,0 -4.75,0.936 -6.55,2.736 -1.8,1.8 -2.66,3.888 -2.66,6.408 0,2.52 0.86,4.608 2.66,6.408 1.8,1.8 4.03,2.736 6.55,2.736 2.52,0 4.61,-0.936 6.41,-2.736 1.8,-1.8 2.66,-3.888 2.66,-6.408 z m -1590.75,27 c 0,-2.52 -0.86,-4.608 -2.66,-6.408 -1.8,-1.8 -3.89,-2.736 -6.41,-2.736 -2.52,0 -4.75,0.936 -6.55,2.736 -1.8,1.8 -2.66,3.888 -2.66,6.408 0,2.52 0.86,4.608 2.66,6.408 1.8,1.8 4.03,2.736 6.55,2.736 2.52,0 4.61,-0.936 6.41,-2.736 1.8,-1.8 2.66,-3.888 2.66,-6.408 z m 0,-36 c 0,-2.52 -0.86,-4.608 -2.66,-6.408 -1.8,-1.8 -3.89,-2.736 -6.41,-2.736 -2.52,0 -4.75,0.936 -6.55,2.736 -1.8,1.8 -2.66,3.888 -2.66,6.408 0,2.52 0.86,4.608 2.66,6.408 1.8,1.8 4.03,2.736 6.55,2.736 2.52,0 4.61,-0.936 6.41,-2.736 1.8,-1.8 2.66,-3.888 2.66,-6.408 z m -1593.56,0 c 0,-2.52 -0.86,-4.608 -2.66,-6.408 -1.8,-1.8 -3.89,-2.736 -6.41,-2.736 -2.52,0 -4.75,0.936 -6.55,2.736 -1.8,1.8 -2.67,3.888 -2.67,6.408 0,2.52 0.87,4.608 2.67,6.408 1.8,1.8 4.03,2.736 6.55,2.736 2.52,0 4.61,-0.936 6.41,-2.736 1.8,-1.8 2.66,-3.888 2.66,-6.408 z m -630.56,9 c 0,-2.52 -0.87,-4.608 -2.67,-6.408 -1.8,-1.8 -3.88,-2.736 -6.4,-2.736 -2.52,0 -4.76,0.936 -6.56,2.736 -1.8,1.8 -2.66,3.888 -2.66,6.408 0,2.52 0.86,4.608 2.66,6.408 1.8,1.8 4.04,2.736 6.56,2.736 2.52,0 4.6,-0.936 6.4,-2.736 1.8,-1.8 2.67,-3.888 2.67,-6.408 z m -236.81,0 c 0,-2.52 -0.87,-4.608 -2.67,-6.408 -1.8,-1.8 -3.89,-2.736 -6.41,-2.736 -2.52,0 -4.75,0.936 -6.55,2.736 -1.8,1.8 -2.66,3.888 -2.66,6.408 0,2.52 0.86,4.608 2.66,6.408 1.8,1.8 4.03,2.736 6.55,2.736 2.52,0 4.61,-0.936 6.41,-2.736 1.8,-1.8 2.67,-3.888 2.67,-6.408 z m -1656,-18 c 0,-2.52 -0.87,-4.608 -2.67,-6.408 -1.8,-1.8 -3.89,-2.736 -6.41,-2.736 -2.52,0 -4.75,0.936 -6.55,2.736 -1.8,1.8 -2.66,3.888 -2.66,6.408 0,2.52 0.86,4.608 2.66,6.408 1.8,1.8 4.03,2.736 6.55,2.736 2.52,0 4.61,-0.936 6.41,-2.736 1.8,-1.8 2.67,-3.888 2.67,-6.408 z m -315,0 c 0,-2.52 -0.87,-4.608 -2.67,-6.408 -1.8,-1.8 -3.89,-2.736 -6.41,-2.736 -2.52,0 -4.75,0.936 -6.55,2.736 -1.8,1.8 -2.66,3.888 -2.66,6.408 0,2.52 0.86,4.608 2.66,6.408 1.8,1.8 4.03,2.736 6.55,2.736 2.52,0 4.61,-0.936 6.41,-2.736 1.8,-1.8 2.67,-3.888 2.67,-6.408 z m -334.69,9 c 0,-2.52 -0.87,-4.608 -2.67,-6.408 -1.8,-1.8 -3.88,-2.736 -6.4,-2.736 -2.52,0 -4.76,0.936 -6.56,2.736 -1.8,1.8 -2.66,3.888 -2.66,6.408 0,2.52 0.86,4.608 2.66,6.408 1.8,1.8 4.04,2.736 6.56,2.736 2.52,0 4.6,-0.936 6.4,-2.736 1.8,-1.8 2.67,-3.888 2.67,-6.408 z m -631.13,9 c 0,-2.52 -0.86,-4.608 -2.66,-6.408 -1.8,-1.8 -3.89,-2.736 -6.41,-2.736 -2.52,0 -4.75,0.936 -6.55,2.736 -1.8,1.8 -2.66,3.888 -2.66,6.408 0,2.52 0.86,4.608 2.66,6.408 1.8,1.8 4.03,2.736 6.55,2.736 2.52,0 4.61,-0.936 6.41,-2.736 1.8,-1.8 2.66,-3.888 2.66,-6.408 z m -3843,-9 c 0,-2.52 -0.86,-4.608 -2.66,-6.408 -1.8,-1.8 -3.89,-2.736 -6.41,-2.736 -2.52,0 -4.75,0.936 -6.55,2.736 -1.8,1.8 -2.66,3.888 -2.66,6.408 0,2.52 0.86,4.608 2.66,6.408 1.8,1.8 4.03,2.736 6.55,2.736 2.52,0 4.61,-0.936 6.41,-2.736 1.8,-1.8 2.66,-3.888 2.66,-6.408 z m -968.06,9 c 0,-2.52 -0.86,-4.608 -2.66,-6.408 -1.8,-1.8 -3.89,-2.736 -6.41,-2.736 -2.52,0 -4.75,0.936 -6.55,2.736 -1.8,1.8 -2.67,3.888 -2.67,6.408 0,2.52 0.87,4.608 2.67,6.408 1.8,1.8 4.03,2.736 6.55,2.736 2.52,0 4.61,-0.936 6.41,-2.736 1.8,-1.8 2.66,-3.888 2.66,-6.408 z m -1599.75,-18 c 0,-2.52 -0.86,-4.608 -2.66,-6.408 -1.8,-1.8 -3.89,-2.736 -6.41,-2.736 -2.52,0 -4.75,0.936 -6.55,2.736 -1.8,1.8 -2.67,3.888 -2.67,6.408 0,2.52 0.87,4.608 2.67,6.408 1.8,1.8 4.03,2.736 6.55,2.736 2.52,0 4.61,-0.936 6.41,-2.736 1.8,-1.8 2.66,-3.888 2.66,-6.408 z m -236.25,0 c 0,-2.52 -0.86,-4.608 -2.66,-6.408 -1.8,-1.8 -3.89,-2.736 -6.41,-2.736 -2.52,0 -4.75,0.936 -6.55,2.736 -1.8,1.8 -2.67,3.888 -2.67,6.408 0,2.52 0.87,4.608 2.67,6.408 1.8,1.8 4.03,2.736 6.55,2.736 2.52,0 4.61,-0.936 6.41,-2.736 1.8,-1.8 2.66,-3.888 2.66,-6.408 z m -394.31,9 c 0,-2.52 -0.87,-4.608 -2.67,-6.408 -1.8,-1.8 -3.88,-2.736 -6.4,-2.736 -2.52,0 -4.76,0.936 -6.56,2.736 -1.8,1.8 -2.66,3.888 -2.66,6.408 0,2.52 0.86,4.608 2.66,6.408 1.8,1.8 4.04,2.736 6.56,2.736 2.52,0 4.6,-0.936 6.4,-2.736 1.8,-1.8 2.67,-3.888 2.67,-6.408 z m -399.94,9 c 0,-2.52 -0.86,-4.608 -2.66,-6.408 -1.8,-1.8 -3.89,-2.736 -6.41,-2.736 -2.52,0 -4.75,0.936 -6.55,2.736 -1.8,1.8 -2.67,3.888 -2.67,6.408 0,2.52 0.87,4.608 2.67,6.408 1.8,1.8 4.03,2.736 6.55,2.736 2.52,0 4.61,-0.936 6.41,-2.736 1.8,-1.8 2.66,-3.888 2.66,-6.408 z m -1820.81,-9 c 0,-2.52 -0.87,-4.608 -2.67,-6.408 -1.8,-1.8 -3.88,-2.736 -6.4,-2.736 -2.52,0 -4.76,0.936 -6.56,2.736 -1.8,1.8 -2.66,3.888 -2.66,6.408 0,2.52 0.86,4.608 2.66,6.408 1.8,1.8 4.04,2.736 6.56,2.736 2.52,0 4.6,-0.936 6.4,-2.736 1.8,-1.8 2.67,-3.888 2.67,-6.408 z m -631.13,9 c 0,-2.52 -0.86,-4.608 -2.66,-6.408 -1.8,-1.8 -3.89,-2.736 -6.41,-2.736 -2.52,0 -4.75,0.936 -6.55,2.736 -1.8,1.8 -2.66,3.888 -2.66,6.408 0,2.52 0.86,4.608 2.66,6.408 1.8,1.8 4.03,2.736 6.55,2.736 2.52,0 4.61,-0.936 6.41,-2.736 1.8,-1.8 2.66,-3.888 2.66,-6.408 z m -2544.18,-18 c 0,-2.52 -0.87,-4.608 -2.67,-6.408 -1.8,-1.8 -3.89,-2.736 -6.41,-2.736 -2.52,0 -4.75,0.936 -6.55,2.736 -1.8,1.8 -2.66,3.888 -2.66,6.408 0,2.52 0.86,4.608 2.66,6.408 1.8,1.8 4.03,2.736 6.55,2.736 2.52,0 4.61,-0.936 6.41,-2.736 1.8,-1.8 2.67,-3.888 2.67,-6.408 z m -79.32,0 c 0,-2.52 -0.86,-4.608 -2.66,-6.408 -1.8,-1.8 -3.89,-2.736 -6.41,-2.736 -2.52,0 -4.75,0.936 -6.55,2.736 -1.8,1.8 -2.66,3.888 -2.66,6.408 0,2.52 0.86,4.608 2.66,6.408 1.8,1.8 4.03,2.736 6.55,2.736 2.52,0 4.61,-0.936 6.41,-2.736 1.8,-1.8 2.66,-3.888 2.66,-6.408 z m -244.68,9 c 0,-2.52 -0.87,-4.608 -2.67,-6.408 -1.8,-1.8 -3.89,-2.736 -6.41,-2.736 -2.52,0 -4.75,0.936 -6.55,2.736 -1.8,1.8 -2.66,3.888 -2.66,6.408 0,2.52 0.86,4.608 2.66,6.408 1.8,1.8 4.03,2.736 6.55,2.736 2.52,0 4.61,-0.936 6.41,-2.736 1.8,-1.8 2.67,-3.888 2.67,-6.408 z m -332.44,9 c 0,-2.52 -0.87,-4.608 -2.67,-6.408 -1.8,-1.8 -3.88,-2.736 -6.4,-2.736 -2.52,0 -4.76,0.936 -6.56,2.736 -1.8,1.8 -2.66,3.888 -2.66,6.408 0,2.52 0.86,4.608 2.66,6.408 1.8,1.8 4.04,2.736 6.56,2.736 2.52,0 4.6,-0.936 6.4,-2.736 1.8,-1.8 2.67,-3.888 2.67,-6.408 z m -2223.56,-9 c 0,-2.52 -0.87,-4.608 -2.67,-6.408 -1.8,-1.8 -3.89,-2.736 -6.41,-2.736 -2.52,0 -4.75,0.936 -6.55,2.736 -1.8,1.8 -2.66,3.888 -2.66,6.408 0,2.52 0.86,4.608 2.66,6.408 1.8,1.8 4.03,2.736 6.55,2.736 2.52,0 4.61,-0.936 6.41,-2.736 1.8,-1.8 2.67,-3.888 2.67,-6.408 z m -473.07,9 c 0,-2.52 -0.86,-4.608 -2.66,-6.408 -1.8,-1.8 -3.89,-2.736 -6.41,-2.736 -2.52,0 -4.75,0.936 -6.55,2.736 -1.8,1.8 -2.66,3.888 -2.66,6.408 0,2.52 0.86,4.608 2.66,6.408 1.8,1.8 4.03,2.736 6.55,2.736 2.52,0 4.61,-0.936 6.41,-2.736 1.8,-1.8 2.66,-3.888 2.66,-6.408 z m -1824.18,-18 c 0,-2.52 -0.87,-4.608 -2.67,-6.408 -1.8,-1.8 -3.89,-2.736 -6.41,-2.736 -2.52,0 -4.75,0.936 -6.55,2.736 -1.8,1.8 -2.66,3.888 -2.66,6.408 0,2.52 0.86,4.608 2.66,6.408 1.8,1.8 4.03,2.736 6.55,2.736 2.52,0 4.61,-0.936 6.41,-2.736 1.8,-1.8 2.67,-3.888 2.67,-6.408 z m -236.82,0 c 0,-2.52 -0.86,-4.608 -2.66,-6.408 -1.8,-1.8 -3.89,-2.736 -6.41,-2.736 -2.52,0 -4.75,0.936 -6.55,2.736 -1.8,1.8 -2.66,3.888 -2.66,6.408 0,2.52 0.86,4.608 2.66,6.408 1.8,1.8 4.03,2.736 6.55,2.736 2.52,0 4.61,-0.936 6.41,-2.736 1.8,-1.8 2.66,-3.888 2.66,-6.408 z m -236.81,9 c 0,-2.52 -0.86,-4.608 -2.66,-6.408 -1.8,-1.8 -3.89,-2.736 -6.41,-2.736 -2.52,0 -4.75,0.936 -6.55,2.736 -1.8,1.8 -2.67,3.888 -2.67,6.408 0,2.52 0.87,4.608 2.67,6.408 1.8,1.8 4.03,2.736 6.55,2.736 2.52,0 4.61,-0.936 6.41,-2.736 1.8,-1.8 2.66,-3.888 2.66,-6.408 z m -88.87,9 c 0,-2.52 -0.87,-4.608 -2.67,-6.408 -1.8,-1.8 -3.89,-2.736 -6.41,-2.736 -2.52,0 -4.75,0.936 -6.55,2.736 -1.8,1.8 -2.66,3.888 -2.66,6.408 0,2.52 0.86,4.608 2.66,6.408 1.8,1.8 4.03,2.736 6.55,2.736 2.52,0 4.61,-0.936 6.41,-2.736 1.8,-1.8 2.67,-3.888 2.67,-6.408 z m -325.13,0 c 0,-2.52 -0.86,-4.608 -2.66,-6.408 -1.8,-1.8 -3.89,-2.736 -6.41,-2.736 -2.52,0 -4.75,0.936 -6.55,2.736 -1.8,1.8 -2.67,3.888 -2.67,6.408 0,2.52 0.87,4.608 2.67,6.408 1.8,1.8 4.03,2.736 6.55,2.736 2.52,0 4.61,-0.936 6.41,-2.736 1.8,-1.8 2.66,-3.888 2.66,-6.408 z m -2868.19,-9 c 0,-2.52 -0.86,-4.608 -2.66,-6.408 -1.8,-1.8 -3.89,-2.736 -6.41,-2.736 -2.52,0 -4.75,0.936 -6.55,2.736 -1.8,1.8 -2.66,3.888 -2.66,6.408 0,2.52 0.86,4.608 2.66,6.408 1.8,1.8 4.03,2.736 6.55,2.736 2.52,0 4.61,-0.936 6.41,-2.736 1.8,-1.8 2.66,-3.888 2.66,-6.408 z m -326.25,9 c 0,-2.52 -0.86,-4.608 -2.66,-6.408 -1.8,-1.8 -3.89,-2.736 -6.41,-2.736 -2.52,0 -4.75,0.936 -6.55,2.736 -1.8,1.8 -2.66,3.888 -2.66,6.408 0,2.52 0.86,4.608 2.66,6.408 1.8,1.8 4.03,2.736 6.55,2.736 2.52,0 4.61,-0.936 6.41,-2.736 1.8,-1.8 2.66,-3.888 2.66,-6.408 z m -157.5,0 c 0,-2.52 -0.86,-4.608 -2.66,-6.408 -1.8,-1.8 -3.89,-2.736 -6.41,-2.736 -2.52,0 -4.75,0.936 -6.55,2.736 -1.8,1.8 -2.66,3.888 -2.66,6.408 0,2.52 0.86,4.608 2.66,6.408 1.8,1.8 4.03,2.736 6.55,2.736 2.52,0 4.61,-0.936 6.41,-2.736 1.8,-1.8 2.66,-3.888 2.66,-6.408 z m -1656,-18 c 0,-2.52 -0.86,-4.608 -2.66,-6.408 -1.8,-1.8 -3.89,-2.736 -6.41,-2.736 -2.52,0 -4.75,0.936 -6.55,2.736 -1.8,1.8 -2.66,3.888 -2.66,6.408 0,2.52 0.86,4.608 2.66,6.408 1.8,1.8 4.03,2.736 6.55,2.736 2.52,0 4.61,-0.936 6.41,-2.736 1.8,-1.8 2.66,-3.888 2.66,-6.408 z m -236.81,0 c 0,-2.52 -0.86,-4.608 -2.66,-6.408 -1.8,-1.8 -3.89,-2.736 -6.41,-2.736 -2.52,0 -4.75,0.936 -6.55,2.736 -1.8,1.8 -2.67,3.888 -2.67,6.408 0,2.52 0.87,4.608 2.67,6.408 1.8,1.8 4.03,2.736 6.55,2.736 2.52,0 4.61,-0.936 6.41,-2.736 1.8,-1.8 2.66,-3.888 2.66,-6.408 z m -325.12,9 c 0,-2.52 -0.87,-4.608 -2.67,-6.408 -1.8,-1.8 -3.89,-2.736 -6.41,-2.736 -2.52,0 -4.75,0.936 -6.55,2.736 -1.8,1.8 -2.66,3.888 -2.66,6.408 0,2.52 0.86,4.608 2.66,6.408 1.8,1.8 4.03,2.736 6.55,2.736 2.52,0 4.61,-0.936 6.41,-2.736 1.8,-1.8 2.67,-3.888 2.67,-6.408 z m -843.19,9 c 0,-2.52 -0.87,-4.608 -2.67,-6.408 -1.8,-1.8 -3.88,-2.736 -6.4,-2.736 -2.52,0 -4.76,0.936 -6.56,2.736 -1.8,1.8 -2.66,3.888 -2.66,6.408 0,2.52 0.86,4.608 2.66,6.408 1.8,1.8 4.04,2.736 6.56,2.736 2.52,0 4.6,-0.936 6.4,-2.736 1.8,-1.8 2.67,-3.888 2.67,-6.408 z m -2207.81,-9 c 0,-2.52 -0.87,-4.608 -2.67,-6.408 -1.8,-1.8 -3.89,-2.736 -6.41,-2.736 -2.52,0 -4.75,0.936 -6.55,2.736 -1.8,1.8 -2.66,3.888 -2.66,6.408 0,2.52 0.86,4.608 2.66,6.408 1.8,1.8 4.03,2.736 6.55,2.736 2.52,0 4.61,-0.936 6.41,-2.736 1.8,-1.8 2.67,-3.888 2.67,-6.408 z m -799.32,9 c 0,-2.52 -0.86,-4.608 -2.66,-6.408 -1.8,-1.8 -3.89,-2.736 -6.41,-2.736 -2.52,0 -4.75,0.936 -6.55,2.736 -1.8,1.8 -2.66,3.888 -2.66,6.408 0,2.52 0.86,4.608 2.66,6.408 1.8,1.8 4.03,2.736 6.55,2.736 2.52,0 4.61,-0.936 6.41,-2.736 1.8,-1.8 2.66,-3.888 2.66,-6.408 z m -1665,-18 c 0,-2.52 -0.86,-4.608 -2.66,-6.408 -1.8,-1.8 -3.89,-2.736 -6.41,-2.736 -2.52,0 -4.75,0.936 -6.55,2.736 -1.8,1.8 -2.66,3.888 -2.66,6.408 0,2.52 0.86,4.608 2.66,6.408 1.8,1.8 4.03,2.736 6.55,2.736 2.52,0 4.61,-0.936 6.41,-2.736 1.8,-1.8 2.66,-3.888 2.66,-6.408 z m -236.25,0 c 0,-2.52 -0.86,-4.608 -2.66,-6.408 -1.8,-1.8 -3.89,-2.736 -6.41,-2.736 -2.52,0 -4.75,0.936 -6.55,2.736 -1.8,1.8 -2.66,3.888 -2.66,6.408 0,2.52 0.86,4.608 2.66,6.408 1.8,1.8 4.03,2.736 6.55,2.736 2.52,0 4.61,-0.936 6.41,-2.736 1.8,-1.8 2.66,-3.888 2.66,-6.408 z m -315.56,9 c 0,-2.52 -0.86,-4.608 -2.66,-6.408 -1.8,-1.8 -3.89,-2.736 -6.41,-2.736 -2.52,0 -4.75,0.936 -6.55,2.736 -1.8,1.8 -2.67,3.888 -2.67,6.408 0,2.52 0.87,4.608 2.67,6.408 1.8,1.8 4.03,2.736 6.55,2.736 2.52,0 4.61,-0.936 6.41,-2.736 1.8,-1.8 2.66,-3.888 2.66,-6.408 z m -793.12,9 c 0,-2.52 -0.87,-4.608 -2.67,-6.408 -1.8,-1.8 -3.89,-2.736 -6.41,-2.736 -2.52,0 -4.75,0.936 -6.55,2.736 -1.8,1.8 -2.66,3.888 -2.66,6.408 0,2.52 0.86,4.608 2.66,6.408 1.8,1.8 4.03,2.736 6.55,2.736 2.52,0 4.61,-0.936 6.41,-2.736 1.8,-1.8 2.67,-3.888 2.67,-6.408 z m -1892.25,-9 c 0,-2.52 -0.87,-4.608 -2.67,-6.408 -1.8,-1.8 -3.89,-2.736 -6.41,-2.736 -2.52,0 -4.75,0.936 -6.55,2.736 -1.8,1.8 -2.66,3.888 -2.66,6.408 0,2.52 0.86,4.608 2.66,6.408 1.8,1.8 4.03,2.736 6.55,2.736 2.52,0 4.61,-0.936 6.41,-2.736 1.8,-1.8 2.67,-3.888 2.67,-6.408 z m -631.13,9 c 0,-2.52 -0.86,-4.608 -2.66,-6.408 -1.8,-1.8 -3.89,-2.736 -6.41,-2.736 -2.52,0 -4.75,0.936 -6.55,2.736 -1.8,1.8 -2.67,3.888 -2.67,6.408 0,2.52 0.87,4.608 2.67,6.408 1.8,1.8 4.03,2.736 6.55,2.736 2.52,0 4.61,-0.936 6.41,-2.736 1.8,-1.8 2.66,-3.888 2.66,-6.408 z m -2534.06,-18 c 0,-2.52 -0.87,-4.608 -2.67,-6.408 -1.8,-1.8 -3.88,-2.736 -6.4,-2.736 -2.52,0 -4.76,0.936 -6.56,2.736 -1.8,1.8 -2.66,3.888 -2.66,6.408 0,2.52 0.86,4.608 2.66,6.408 1.8,1.8 4.04,2.736 6.56,2.736 2.52,0 4.6,-0.936 6.4,-2.736 1.8,-1.8 2.67,-3.888 2.67,-6.408 z m -157.5,0 c 0,-2.52 -0.87,-4.608 -2.67,-6.408 -1.8,-1.8 -3.88,-2.736 -6.4,-2.736 -2.52,0 -4.76,0.936 -6.56,2.736 -1.8,1.8 -2.66,3.888 -2.66,6.408 0,2.52 0.86,4.608 2.66,6.408 1.8,1.8 4.04,2.736 6.56,2.736 2.52,0 4.6,-0.936 6.4,-2.736 1.8,-1.8 2.67,-3.888 2.67,-6.408 z m -158.06,9 c 0,-2.52 -0.87,-4.608 -2.67,-6.408 -1.8,-1.8 -3.89,-2.736 -6.41,-2.736 -2.52,0 -4.75,0.936 -6.55,2.736 -1.8,1.8 -2.66,3.888 -2.66,6.408 0,2.52 0.86,4.608 2.66,6.408 1.8,1.8 4.03,2.736 6.55,2.736 2.52,0 4.61,-0.936 6.41,-2.736 1.8,-1.8 2.67,-3.888 2.67,-6.408 z m -315,0 c 0,-2.52 -0.87,-4.608 -2.67,-6.408 -1.8,-1.8 -3.89,-2.736 -6.41,-2.736 -2.52,0 -4.75,0.936 -6.55,2.736 -1.8,1.8 -2.66,3.888 -2.66,6.408 0,2.52 0.86,4.608 2.66,6.408 1.8,1.8 4.03,2.736 6.55,2.736 2.52,0 4.61,-0.936 6.41,-2.736 1.8,-1.8 2.67,-3.888 2.67,-6.408 z m -946.69,162 c 0,-2.52 -0.87,-4.608 -2.67,-6.408 -1.8,-1.8 -3.88,-2.736 -6.4,-2.736 -2.52,0 -4.76,0.936 -6.56,2.736 -1.8,1.8 -2.66,3.888 -2.66,6.408 0,2.52 0.86,4.608 2.66,6.408 1.8,1.8 4.04,2.736 6.56,2.736 2.52,0 4.6,-0.936 6.4,-2.736 1.8,-1.8 2.67,-3.888 2.67,-6.408 z m -637.31,0 c 0,-2.52 -0.87,-4.608 -2.67,-6.408 -1.8,-1.8 -3.89,-2.736 -6.41,-2.736 -2.52,0 -4.75,0.936 -6.55,2.736 -1.8,1.8 -2.66,3.888 -2.66,6.408 0,2.52 0.86,4.608 2.66,6.408 1.8,1.8 4.03,2.736 6.55,2.736 2.52,0 4.61,-0.936 6.41,-2.736 1.8,-1.8 2.67,-3.888 2.67,-6.408 z m -946.13,0 c 0,-2.52 -0.86,-4.608 -2.66,-6.408 -1.8,-1.8 -3.89,-2.736 -6.41,-2.736 -2.52,0 -4.75,0.936 -6.55,2.736 -1.8,1.8 -2.67,3.888 -2.67,6.408 0,2.52 0.87,4.608 2.67,6.408 1.8,1.8 4.03,2.736 6.55,2.736 2.52,0 4.61,-0.936 6.41,-2.736 1.8,-1.8 2.66,-3.888 2.66,-6.408 z m -636.19,0 c 0,-2.52 -0.86,-4.608 -2.66,-6.408 -1.8,-1.8 -3.89,-2.736 -6.41,-2.736 -2.52,0 -4.75,0.936 -6.55,2.736 -1.8,1.8 -2.66,3.888 -2.66,6.408 0,2.52 0.86,4.608 2.66,6.408 1.8,1.8 4.03,2.736 6.55,2.736 2.52,0 4.61,-0.936 6.41,-2.736 1.8,-1.8 2.66,-3.888 2.66,-6.408 z m -660.37,0 c 0,-2.52 -0.87,-4.608 -2.67,-6.408 -1.8,-1.8 -3.88,-2.736 -6.4,-2.736 -2.52,0 -4.76,0.936 -6.56,2.736 -1.8,1.8 -2.66,3.888 -2.66,6.408 0,2.52 0.86,4.608 2.66,6.408 1.8,1.8 4.04,2.736 6.56,2.736 2.52,0 4.6,-0.936 6.4,-2.736 1.8,-1.8 2.67,-3.888 2.67,-6.408 z m -946.13,0 c 0,-2.52 -0.86,-4.608 -2.66,-6.408 -1.8,-1.8 -3.89,-2.736 -6.41,-2.736 -2.52,0 -4.75,0.936 -6.55,2.736 -1.8,1.8 -2.66,3.888 -2.66,6.408 0,2.52 0.86,4.608 2.66,6.408 1.8,1.8 4.03,2.736 6.55,2.736 2.52,0 4.61,-0.936 6.41,-2.736 1.8,-1.8 2.66,-3.888 2.66,-6.408 z m -315.56,0 c 0,-2.52 -0.86,-4.608 -2.66,-6.408 -1.8,-1.8 -3.89,-2.736 -6.41,-2.736 -2.52,0 -4.75,0.936 -6.55,2.736 -1.8,1.8 -2.67,3.888 -2.67,6.408 0,2.52 0.87,4.608 2.67,6.408 1.8,1.8 4.03,2.736 6.55,2.736 2.52,0 4.61,-0.936 6.41,-2.736 1.8,-1.8 2.66,-3.888 2.66,-6.408 z m -16491.37,-180 c 0,-2.52 -0.87,-4.608 -2.67,-6.408 -1.8,-1.8 -3.89,-2.736 -6.41,-2.736 -2.52,0 -4.75,0.936 -6.55,2.736 -1.8,1.8 -2.66,3.888 -2.66,6.408 0,2.52 0.86,4.608 2.66,6.408 1.8,1.8 4.03,2.736 6.55,2.736 2.52,0 4.61,-0.936 6.41,-2.736 1.8,-1.8 2.67,-3.888 2.67,-6.408 z m -32077.13,-99 c 0,-2.52 -0.864,-4.608 -2.664,-6.408 -1.8,-1.8 -3.888,-2.736 -6.408,-2.736 -2.52,0 -4.751,0.936 -6.552,2.736 -1.8,1.8 -2.664,3.888 -2.664,6.408 0,2.52 0.864,4.608 2.664,6.408 1.801,1.8 4.032,2.736 6.552,2.736 2.52,0 4.608,-0.936 6.408,-2.736 1.8,-1.8 2.664,-3.888 2.664,-6.408 z m -9501.75,63 c 0,-2.52 -0.864,-4.608 -2.664,-6.408 -1.8,-1.8 -3.888,-2.736 -6.408,-2.736 -2.52,0 -4.751,0.936 -6.552,2.736 -1.8,1.8 -2.664,3.888 -2.664,6.408 0,2.52 0.864,4.608 2.664,6.408 1.801,1.8 4.032,2.736 6.552,2.736 2.52,0 4.608,-0.936 6.408,-2.736 1.8,-1.8 2.664,-3.888 2.664,-6.408 z m -1892.812,216 c 0,-2.52 -0.864,-4.608 -2.664,-6.408 -1.8,-1.8 -3.888,-2.736 -6.408,-2.736 -2.52,0 -4.752,0.936 -6.552,2.736 -1.8,1.8 -2.664,3.888 -2.664,6.408 0,2.52 0.864,4.608 2.664,6.408 1.8,1.8 4.032,2.736 6.552,2.736 2.52,0 4.608,-0.936 6.408,-2.736 1.8,-1.8 2.664,-3.888 2.664,-6.408 z m -315,-153 c 0,-2.52 -0.864,-4.608 -2.664,-6.408 -1.8,-1.8 -3.888,-2.736 -6.408,-2.736 -2.52,0 -4.752,0.936 -6.552,2.736 -1.8,1.8 -2.664,3.888 -2.664,6.408 0,2.52 0.864,4.608 2.664,6.408 1.8,1.8 4.032,2.736 6.552,2.736 2.52,0 4.608,-0.936 6.408,-2.736 1.8,-1.8 2.664,-3.888 2.664,-6.408 z m -17228.812,-9 c 0,-2.52 -0.864,-4.608 -2.664,-6.408 -1.8,-1.8 -3.889,-2.736 -6.408,-2.736 -2.52,0 -4.752,0.936 -6.553,2.736 -1.799,1.8 -2.663,3.888 -2.663,6.408 0,2.52 0.864,4.608 2.663,6.408 1.801,1.8 4.033,2.736 6.553,2.736 2.519,0 4.608,-0.936 6.408,-2.736 1.8,-1.8 2.664,-3.888 2.664,-6.408 z m -9845.438,-117 c 0,-2.52 -0.864,-4.608 -2.664,-6.408 -1.8,-1.8 -3.888,-2.736 -6.408,-2.736 -2.52,0 -4.752,0.936 -6.552,2.736 -1.8,1.8 -2.664,3.888 -2.664,6.408 0,2.52 0.864,4.608 2.664,6.408 1.8,1.8 4.032,2.736 6.552,2.736 2.52,0 4.608,-0.936 6.408,-2.736 1.8,-1.8 2.664,-3.888 2.664,-6.408 z m -9056.25,63 c 0,-2.52 -0.864,-4.608 -2.664,-6.408 -1.8,-1.8 -3.888,-2.736 -6.408,-2.736 -2.52,0 -4.752,0.936 -6.552,2.736 -1.8,1.8 -2.664,3.888 -2.664,6.408 0,2.52 0.864,4.608 2.664,6.408 1.8,1.8 4.032,2.736 6.552,2.736 2.52,0 4.608,-0.936 6.408,-2.736 1.8,-1.8 2.664,-3.888 2.664,-6.408 z m -3153.937,63 c 0,-2.52 -0.864,-4.608 -2.664,-6.408 -1.8,-1.8 -3.889,-2.736 -6.408,-2.736 -2.52,0 -4.752,0.936 -6.553,2.736 -1.799,1.8 -2.663,3.888 -2.663,6.408 0,2.52 0.864,4.608 2.663,6.408 1.801,1.8 4.033,2.736 6.553,2.736 2.519,0 4.608,-0.936 6.408,-2.736 1.8,-1.8 2.664,-3.888 2.664,-6.408 z m -3154.501,153 c 0,-2.52 -0.864,-4.608 -2.664,-6.408 -1.8,-1.8 -3.888,-2.736 -6.408,-2.736 -2.52,0 -4.752,0.936 -6.552,2.736 -1.8,1.8 -2.664,3.888 -2.664,6.408 0,2.52 0.864,4.608 2.664,6.408 1.8,1.8 4.032,2.736 6.552,2.736 2.52,0 4.608,-0.936 6.408,-2.736 1.8,-1.8 2.664,-3.888 2.664,-6.408 z m -2242.125,-180 c 0,-2.52 -0.864,-4.608 -2.664,-6.408 -1.8,-1.8 -3.888,-2.736 -6.408,-2.736 -2.52,0 -4.752,0.936 -6.552,2.736 -1.8,1.8 -2.664,3.888 -2.664,6.408 0,2.52 0.864,4.608 2.664,6.408 1.8,1.8 4.032,2.736 6.552,2.736 2.52,0 4.608,-0.936 6.408,-2.736 1.8,-1.8 2.664,-3.888 2.664,-6.408 z m -2532.375,0 c 0,-2.52 -0.864,-4.608 -2.664,-6.408 -1.8,-1.8 -3.888,-2.736 -6.408,-2.736 -2.52,0 -4.752,0.936 -6.552,2.736 -1.8,1.8 -2.664,3.888 -2.664,6.408 0,2.52 0.864,4.608 2.664,6.408 1.8,1.8 4.032,2.736 6.552,2.736 2.52,0 4.608,-0.936 6.408,-2.736 1.8,-1.8 2.664,-3.888 2.664,-6.408 z m -2523.937,27 c 0,-2.52 -0.864,-4.608 -2.664,-6.408 -1.8,-1.8 -3.888,-2.736 -6.408,-2.736 -2.52,0 -4.752,0.936 -6.552,2.736 -1.8,1.8 -2.664,3.888 -2.664,6.408 0,2.52 0.864,4.608 2.664,6.408 1.8,1.8 4.032,2.736 6.552,2.736 2.52,0 4.608,-0.936 6.408,-2.736 1.8,-1.8 2.664,-3.888 2.664,-6.408 z m -4100.625,0 c 0,-2.52 -0.864,-4.608 -2.664,-6.408 -1.8,-1.8 -3.888,-2.736 -6.408,-2.736 -2.52,0 -4.752,0.936 -6.552,2.736 -1.8,1.8 -2.664,3.888 -2.664,6.408 0,2.52 0.864,4.608 2.664,6.408 1.8,1.8 4.032,2.736 6.552,2.736 2.52,0 4.608,-0.936 6.408,-2.736 1.8,-1.8 2.664,-3.888 2.664,-6.408 z m -1943.438,54 c 0,-2.52 -0.864,-4.608 -2.664,-6.408 -1.8,-1.8 -3.888,-2.736 -6.408,-2.736 -2.52,0 -4.752,0.936 -6.552,2.736 -1.8,1.8 -2.664,3.888 -2.664,6.408 0,2.52 0.864,4.608 2.664,6.408 1.8,1.8 4.032,2.736 6.552,2.736 2.52,0 4.608,-0.936 6.408,-2.736 1.8,-1.8 2.664,-3.888 2.664,-6.408 z m -1587.375,-63 c 0,-2.52 -0.864,-4.608 -2.664,-6.408 -1.8,-1.8 -3.888,-2.736 -6.408,-2.736 -2.52,0 -4.752,0.936 -6.552,2.736 -1.8,1.8 -2.664,3.888 -2.664,6.408 0,2.52 0.864,4.608 2.664,6.408 1.8,1.8 4.032,2.736 6.552,2.736 2.52,0 4.608,-0.936 6.408,-2.736 1.8,-1.8 2.664,-3.888 2.664,-6.408 z m -3469.499,9 c 0,-2.52 -0.864,-4.608 -2.664,-6.408 -1.8,-1.8 -3.888,-2.736 -6.408,-2.736 -2.52,0 -4.752,0.936 -6.552,2.736 -1.8,1.8 -2.664,3.888 -2.664,6.408 0,2.52 0.864,4.608 2.664,6.408 1.8,1.8 4.032,2.736 6.552,2.736 2.52,0 4.608,-0.936 6.408,-2.736 1.8,-1.8 2.664,-3.888 2.664,-6.408 z m -3154.5005,0 c 0,-2.52 -0.864,-4.608 -2.664,-6.408 -1.8,-1.8 -3.888,-2.736 -6.408,-2.736 -2.52,0 -4.752,0.936 -6.552,2.736 -1.8,1.8 -2.664,3.888 -2.664,6.408 0,2.52 0.864,4.608 2.664,6.408 1.8,1.8 4.032,2.736 6.552,2.736 2.52,0 4.608,-0.936 6.408,-2.736 1.8,-1.8 2.664,-3.888 2.664,-6.408 z m -3785.0625,0 c 0,-2.52 -0.864,-4.608 -2.664,-6.408 -1.8,-1.8 -3.888,-2.736 -6.408,-2.736 -2.52,0 -4.752,0.936 -6.552,2.736 -1.8,1.8 -2.664,3.888 -2.664,6.408 0,2.52 0.864,4.608 2.664,6.408 1.8,1.8 4.032,2.736 6.552,2.736 2.52,0 4.608,-0.936 6.408,-2.736 1.8,-1.8 2.664,-3.888 2.664,-6.408 z m -5046.75,0 c 0.1409,-4.56184 -3.7514,-8.79117 -8.2883,-9.11342 -3.403,-0.34573 -6.8585,1.4314 -8.6472,4.32895 -2.2524,3.44291 -1.6685,8.43464 1.3505,11.23964 2.6969,2.77373 7.2444,3.54645 10.6546,1.66725 2.9269,-1.56779 5.0379,-4.74572 4.9304,-8.12242 z m 243777.527,15.624 v -38.664 l -11.02,3.888 v -14.472 h -1.79 v 38.664 l 11.01,-3.816 v 14.4 z m -11.02,-28.944 9.22,-3.384 v 12.096 l -9.22,3.312 z m -12188.48,-16.056 v -38.664 l -11.02,3.888 v -14.472 h -1.79 v 38.664 l 11.01,-3.816 v 14.4 z m -11.02,-28.944 9.22,-3.384 v 12.096 l -9.22,3.312 z m -93084.42,73.944 v -38.664 l -11.01,3.888 v -14.472 h -1.8 v 38.664 l 11.01,-3.816 v 14.4 z m -11.01,-28.944 9.21,-3.384 v 12.096 l -9.21,3.312 z m 135340.2,-18.432 10.15,-7.488 c 4.46,-3.24 6.19,-6.912 6.34,-9.648 0,-4.032 -3.68,-7.056 -8,-7.056 -3.02,0 -5.25,1.152 -6.69,3.528 l 0.5,-22.68 h -2.3 z m 6.69,-21.312 c 2.31,0 4.04,1.656 4.04,3.888 0,3.744 -4.97,10.944 -8.72,13.32 -0.21,-1.224 -0.36,-3.6 -0.36,-7.128 0,-1.944 0.15,-4.32 0.44,-7.056 1.08,-2.016 2.59,-3.024 4.6,-3.024 z m -3492.5,102.312 10.15,-7.488 c 4.46,-3.24 6.19,-6.912 6.33,-9.648 0,-4.032 -3.67,-7.056 -7.99,-7.056 -3.02,0 -5.26,1.152 -6.7,3.528 l 0.51,-22.68 h -2.3 z m 6.69,-21.312 c 2.31,0 4.03,1.656 4.03,3.888 0,3.744 -4.96,10.944 -8.71,13.32 -0.22,-1.224 -0.36,-3.6 -0.36,-7.128 0,-1.944 0.14,-4.32 0.43,-7.056 1.08,-2.016 2.59,-3.024 4.61,-3.024 z m -12660.13,-23.688 10.15,-7.488 c 4.46,-3.24 6.19,-6.912 6.34,-9.648 0,-4.032 -3.68,-7.056 -8,-7.056 -3.02,0 -5.25,1.152 -6.69,3.528 l 0.5,-22.68 h -2.3 z m 6.69,-21.312 c 2.31,0 4.04,1.656 4.04,3.888 0,3.744 -4.97,10.944 -8.72,13.32 -0.21,-1.224 -0.36,-3.6 -0.36,-7.128 0,-1.944 0.15,-4.32 0.44,-7.056 1.08,-2.016 2.59,-3.024 4.6,-3.024 z m -1583.94,3.312 10.15,-7.488 c 4.46,-3.24 6.19,-6.912 6.34,-9.648 0,-4.032 -3.68,-7.056 -8,-7.056 -3.02,0 -5.25,1.152 -6.69,3.528 l 0.5,-22.68 h -2.3 z m 6.69,-21.312 c 2.31,0 4.04,1.656 4.04,3.888 0,3.744 -4.97,10.944 -8.72,13.32 -0.21,-1.224 -0.36,-3.6 -0.36,-7.128 0,-1.944 0.15,-4.32 0.44,-7.056 1.08,-2.016 2.59,-3.024 4.6,-3.024 z m -5684,30.312 10.15,-7.488 c 4.46,-3.24 6.19,-6.912 6.33,-9.648 0,-4.032 -3.67,-7.056 -7.99,-7.056 -3.02,0 -5.26,1.152 -6.7,3.528 l 0.51,-22.68 h -2.3 z m 6.69,-21.312 c 2.31,0 4.03,1.656 4.03,3.888 0,3.744 -4.96,10.944 -8.71,13.32 -0.22,-1.224 -0.36,-3.6 -0.36,-7.128 0,-1.944 0.14,-4.32 0.43,-7.056 1.08,-2.016 2.59,-3.024 4.61,-3.024 z m -11009.19,12.312 10.15,-7.488 c 4.46,-3.24 6.19,-6.912 6.33,-9.648 0,-4.032 -3.67,-7.056 -7.99,-7.056 -3.02,0 -5.26,1.152 -6.7,3.528 l 0.51,-22.68 h -2.3 z m 6.69,-21.312 c 2.31,0 4.03,1.656 4.03,3.888 0,3.744 -4.96,10.944 -8.71,13.32 -0.22,-1.224 -0.36,-3.6 -0.36,-7.128 0,-1.944 0.14,-4.32 0.43,-7.056 1.08,-2.016 2.59,-3.024 4.61,-3.024 z m -1981.07,3.312 10.15,-7.488 c 4.47,-3.24 6.19,-6.912 6.34,-9.648 0,-4.032 -3.67,-7.056 -7.99,-7.056 -3.03,0 -5.26,1.152 -6.7,3.528 l 0.5,-22.68 h -2.3 z m 6.7,-21.312 c 2.3,0 4.03,1.656 4.03,3.888 0,3.744 -4.97,10.944 -8.71,13.32 -0.22,-1.224 -0.36,-3.6 -0.36,-7.128 0,-1.944 0.14,-4.32 0.43,-7.056 1.08,-2.016 2.59,-3.024 4.61,-3.024 z m -1292.01,12.312 10.15,-7.488 c 4.46,-3.24 6.19,-6.912 6.34,-9.648 0,-4.032 -3.68,-7.056 -8,-7.056 -3.02,0 -5.25,1.152 -6.69,3.528 l 0.5,-22.68 h -2.3 z m 6.69,-21.312 c 2.31,0 4.04,1.656 4.04,3.888 0,3.744 -4.97,10.944 -8.72,13.32 -0.21,-1.224 -0.36,-3.6 -0.36,-7.128 0,-1.944 0.15,-4.32 0.44,-7.056 1.08,-2.016 2.59,-3.024 4.6,-3.024 z m -1504.63,3.312 10.15,-7.488 c 4.47,-3.24 6.19,-6.912 6.34,-9.648 0,-4.032 -3.67,-7.056 -7.99,-7.056 -3.03,0 -5.26,1.152 -6.7,3.528 l 0.5,-22.68 h -2.3 z m 6.7,-21.312 c 2.3,0 4.03,1.656 4.03,3.888 0,3.744 -4.97,10.944 -8.71,13.32 -0.22,-1.224 -0.36,-3.6 -0.36,-7.128 0,-1.944 0.14,-4.32 0.43,-7.056 1.08,-2.016 2.59,-3.024 4.61,-3.024 z m -3117.89,75.312 10.15,-7.488 c 4.47,-3.24 6.2,-6.912 6.34,-9.648 0,-4.032 -3.67,-7.056 -7.99,-7.056 -3.03,0 -5.26,1.152 -6.7,3.528 l 0.51,-22.68 h -2.31 z m 6.7,-21.312 c 2.3,0 4.03,1.656 4.03,3.888 0,3.744 -4.97,10.944 -8.71,13.32 -0.22,-1.224 -0.36,-3.6 -0.36,-7.128 0,-1.944 0.14,-4.32 0.43,-7.056 1.08,-2.016 2.59,-3.024 4.61,-3.024 z m -1724.01,48.312 10.15,-7.488 c 4.47,-3.24 6.19,-6.912 6.34,-9.648 0,-4.032 -3.67,-7.056 -7.99,-7.056 -3.03,0 -5.26,1.152 -6.7,3.528 l 0.5,-22.68 h -2.3 z m 6.7,-21.312 c 2.3,0 4.03,1.656 4.03,3.888 0,3.744 -4.97,10.944 -8.71,13.32 -0.22,-1.224 -0.36,-3.6 -0.36,-7.128 0,-1.944 0.14,-4.32 0.43,-7.056 1.08,-2.016 2.59,-3.024 4.61,-3.024 z m -16360.82,21.312 10.15,-7.488 c 4.46,-3.24 6.19,-6.912 6.33,-9.648 0,-4.032 -3.67,-7.056 -7.99,-7.056 -3.02,0 -5.26,1.152 -6.7,3.528 l 0.51,-22.68 h -2.3 z m 6.69,-21.312 c 2.31,0 4.03,1.656 4.03,3.888 0,3.744 -4.96,10.944 -8.71,13.32 -0.22,-1.224 -0.36,-3.6 -0.36,-7.128 0,-1.944 0.14,-4.32 0.43,-7.056 1.08,-2.016 2.59,-3.024 4.61,-3.024 z m -637.82,30.312 10.15,-7.488 c 4.47,-3.24 6.19,-6.912 6.34,-9.648 0,-4.032 -3.67,-7.056 -7.99,-7.056 -3.03,0 -5.26,1.152 -6.7,3.528 l 0.5,-22.68 h -2.3 z m 6.7,-21.312 c 2.3,0 4.03,1.656 4.03,3.888 0,3.744 -4.97,10.944 -8.71,13.32 -0.22,-1.224 -0.36,-3.6 -0.36,-7.128 0,-1.944 0.14,-4.32 0.43,-7.056 1.08,-2.016 2.59,-3.024 4.61,-3.024 z m -32681.2,30.312 10.15,-7.488 c 4.47,-3.24 6.19,-6.912 6.34,-9.648 0,-4.032 -3.67,-7.056 -7.99,-7.056 -3.03,0 -5.26,1.152 -6.7,3.528 l 0.5,-22.68 h -2.3 z m 6.7,-21.312 c 2.3,0 4.03,1.656 4.03,3.888 0,3.744 -4.97,10.944 -8.71,13.32 -0.22,-1.224 -0.36,-3.6 -0.36,-7.128 0,-1.944 0.14,-4.32 0.43,-7.056 1.08,-2.016 2.59,-3.024 4.61,-3.024 z m -4773.32,-14.688 10.15,-7.488 c 4.46,-3.24 6.19,-6.912 6.33,-9.648 0,-4.032 -3.67,-7.056 -7.99,-7.056 -3.02,0 -5.26,1.152 -6.7,3.528 l 0.51,-22.68 h -2.3 z m 6.69,-21.312 c 2.31,0 4.03,1.656 4.03,3.888 0,3.744 -4.96,10.944 -8.71,13.32 -0.22,-1.224 -0.36,-3.6 -0.36,-7.128 0,-1.944 0.14,-4.32 0.43,-7.056 1.08,-2.016 2.59,-3.024 4.61,-3.024 z m -33462.51,21.312 10.15,-7.488 c 4.47,-3.24 6.2,-6.912 6.34,-9.648 0,-4.032 -3.67,-7.056 -7.99,-7.056 -3.03,0 -5.26,1.152 -6.7,3.528 l 0.51,-22.68 h -2.31 z m 6.7,-21.312 c 2.3,0 4.03,1.656 4.03,3.888 0,3.744 -4.97,10.944 -8.71,13.32 -0.22,-1.224 -0.36,-3.6 -0.36,-7.128 0,-1.944 0.14,-4.32 0.43,-7.056 1.08,-2.016 2.59,-3.024 4.61,-3.024 z m -3802.45,21.312 10.15,-7.488 c 4.47,-3.24 6.2,-6.912 6.34,-9.648 0,-4.032 -3.67,-7.056 -7.99,-7.056 -3.03,0 -5.26,1.152 -6.7,3.528 l 0.51,-22.68 h -2.31 z m 6.7,-21.312 c 2.3,0 4.03,1.656 4.03,3.888 0,3.744 -4.97,10.944 -8.71,13.32 -0.22,-1.224 -0.36,-3.6 -0.36,-7.128 0,-1.944 0.14,-4.32 0.43,-7.056 1.08,-2.016 2.59,-3.024 4.61,-3.024 z m -21586.45,3.312 10.15,-7.488 c 4.47,-3.24 6.2,-6.912 6.34,-9.648 0,-4.032 -3.67,-7.056 -7.99,-7.056 -3.03,0 -5.26,1.152 -6.7,3.528 l 0.51,-22.68 h -2.31 z m 6.7,-21.312 c 2.3,0 4.03,1.656 4.03,3.888 0,3.744 -4.97,10.944 -8.71,13.32 -0.22,-1.224 -0.36,-3.6 -0.36,-7.128 0,-1.944 0.14,-4.32 0.43,-7.056 1.08,-2.016 2.59,-3.024 4.61,-3.024 z m -61022.197,39.312 10.152,-7.488 c 4.464,-3.24 6.191,-6.912 6.335,-9.648 0,-4.032 -3.671,-7.056 -7.991,-7.056 -3.024,0 -5.257,1.152 -6.696,3.528 l 0.503,-22.68 h -2.303 z m 6.696,-21.312 c 2.304,0 4.032,1.656 4.032,3.888 0,3.744 -4.968,10.944 -8.712,13.32 -0.216,-1.224 -0.36,-3.6 -0.36,-7.128 0,-1.944 0.144,-4.32 0.432,-7.056 1.079,-2.016 2.592,-3.024 4.608,-3.024 z m -29991.322,3.312 10.152,-7.488 c 4.465,-3.24 6.192,-6.912 6.336,-9.648 0,-4.032 -3.672,-7.056 -7.992,-7.056 -3.024,0 -5.256,1.152 -6.696,3.528 l 0.504,-22.68 h -2.304 z m 6.696,-21.312 c 2.304,0 4.032,1.656 4.032,3.888 0,3.744 -4.968,10.944 -8.712,13.32 -0.216,-1.224 -0.36,-3.6 -0.36,-7.128 0,-1.944 0.144,-4.32 0.432,-7.056 1.08,-2.016 2.592,-3.024 4.608,-3.024 z m -8574.696,102.312 10.152,-7.488 c 4.465,-3.24 6.192,-6.912 6.336,-9.648 0,-4.032 -3.672,-7.056 -7.992,-7.056 -3.024,0 -5.256,1.152 -6.696,3.528 l 0.504,-22.68 h -2.304 z m 6.696,-21.312 c 2.304,0 4.032,1.656 4.032,3.888 0,3.744 -4.968,10.944 -8.712,13.32 -0.216,-1.224 -0.36,-3.6 -0.36,-7.128 0,-1.944 0.144,-4.32 0.432,-7.056 1.08,-2.016 2.592,-3.024 4.608,-3.024 z m -1594.071,-41.688 10.152,-7.488 c 4.465,-3.24 6.192,-6.912 6.336,-9.648 0,-4.032 -3.672,-7.056 -7.992,-7.056 -3.024,0 -5.256,1.152 -6.696,3.528 l 0.504,-22.68 h -2.304 z m 6.696,-21.312 c 2.304,0 4.032,1.656 4.032,3.888 0,3.744 -4.968,10.944 -8.712,13.32 -0.216,-1.224 -0.36,-3.6 -0.36,-7.128 0,-1.944 0.144,-4.32 0.432,-7.056 1.08,-2.016 2.592,-3.024 4.608,-3.024 z m 271370.872,-0.864 v 72" />
  </g>
</svg>
