<svg xmlns="http://www.w3.org/2000/svg" viewBox="0 -0.4 4.6 5" version="1.1" id="svg7019"><g id="layer1" transform="translate(-96.45 -111.66) scale(.95284)"><g aria-label="ï‚" id="text2008" style="font-style:normal;font-weight:400;font-size:72px;font-family:'Opus Std';display:inline;fill:#000;fill-opacity:1;fill-rule:evenodd;stroke:none;stroke-width:.5625;stroke-linecap:butt;stroke-linejoin:bevel;stroke-opacity:1" transform="translate(81.58 -55.18) scale(.0882)"><path d="M256.66 2020.7c10.59 0 16.78-5.33 16.78-15.05 0-9.86-5.83-18.43-14.4-18.43-3.17 0-5.55 1.51-8.07 3.9-1.72 0-2.8-3.68-2.8-7.28 0-2.74 1.08-5.11 2.59-5.11h.36c1.94 1.36 4.9 2.01 8.71 2.01 7.42 0 13.32-8.2 13.32-17.13 0-9.65-6.84-15.27-17.35-15.27-3.75 0-7.49.58-10.08 3.96a11.49 11.49 0 0 0-2.52 7.13c0 3.67 2.66 6.55 6.33 6.55 3.03 0 5.7-3.53 5.7-6.33 0-2.1-1.02-3.39-4.54-4.97-1.08-.5-1.59-.94-1.59-1.3 0-1.22 1.59-1.87 4.75-1.87 8 0 10.3 2.38 10.3 13.97 0 7.05-2.52 12.17-6.84 12.17-2.45 0-5.76-2.52-10-7.64-.73 7.13-3.54 12.96-7.14 12.96-.36 0-.64-.07-1-.14v-34.2h-2.88v71.71h2.88v-33.12a4.2 4.2 0 0 1 1.36-.21c3.32 0 5.84 5.18 6.77 12.6 3.53-5.7 6.99-8.57 10.37-8.57 3.96 0 6.7 5.83 6.7 12.6 0 11.23-2.24 14.47-8.64 14.47-3.68 0-5.55-.8-5.55-2.38 0-.86 5.11-2.66 5.11-5.9s-2.73-6.2-5.97-6.2c-3.1 0-5.62 3.46-5.62 6.42 0 6.48 5.98 10.65 12.96 10.65zm-33.91-72.07v71.71h9v-71.7z" style="font-style:normal;font-weight:400;font-size:72px;font-family:'Opus Std';display:inline;fill:#000;fill-opacity:1;fill-rule:evenodd;stroke:none;stroke-width:.5625;stroke-linecap:butt;stroke-linejoin:bevel;stroke-opacity:1" id="path6866"/></g></g></svg>
