<svg xmlns="http://www.w3.org/2000/svg" width="210mm" height="297mm" viewBox="0 0 210 297" version="1.1" id="svg6926"><g id="layer1"><g aria-label="" id="text64" style="font-style:normal;font-weight:400;font-size:72px;font-family:'Opus Std';display:inline;fill:#000;fill-opacity:1;fill-rule:evenodd;stroke:none;stroke-width:.5625;stroke-linecap:butt;stroke-linejoin:bevel;stroke-opacity:1" transform="translate(15.08 5.08) scale(.0882)"><path d="M223.4 423.93c.07 1.08.79 1.66 2.3 1.66 5.9 0 22.32-8.14 29.23-19.23 5.55-8.78 7.13-13.32 7.13-19.3 0-9.57-4.39-21.16-21.31-21.16-9.22 0-17.57 6.48-17.57 14.98 0 5.54 2.95 10.3 7.49 10.3s7.63-3.46 7.63-8c0-3.24-2.45-6.2-5.61-6.2-2.96 0-5.19 2.31-4.97 2.31-.36 0-.5-.36-.5-1.15 0-5.04 6.33-9.94 12.16-9.94 8.21 0 13.4 6.84 13.4 15.99 0 11.37-6.63 23.97-17.21 33.48-2.81 2.52-6.92 4.6-12.17 6.26zm44.71-48.74c0 2.01 1.58 3.6 3.6 3.6s3.6-1.59 3.6-3.6c0-2.02-1.58-3.6-3.6-3.6a3.57 3.57 0 0 0-3.6 3.6zm0 17.93c0 2.01 1.58 3.6 3.6 3.6s3.6-1.59 3.6-3.6c0-2.02-1.58-3.6-3.6-3.6a3.57 3.57 0 0 0-3.6 3.6z" style="font-style:normal;font-weight:400;font-size:72px;font-family:'Opus Std';display:inline;fill:#000;fill-opacity:1;fill-rule:evenodd;stroke:none;stroke-width:.5625;stroke-linecap:butt;stroke-linejoin:bevel;stroke-opacity:1" id="path6857"/></g><g aria-label="" id="text696" style="font-style:normal;font-weight:400;font-size:72px;font-family:'Opus Std';display:inline;fill:#000;fill-opacity:1;fill-rule:evenodd;stroke:none;stroke-width:.5625;stroke-linecap:butt;stroke-linejoin:bevel;stroke-opacity:1" transform="translate(15.08 5.08) scale(.0882)"><path d="m260.4 963.58 2.74 13.32c.15.8.22 1.51.22 2.23 0 7.06-7.2 12.96-14.98 12.96a15.2 15.2 0 0 1-6.84-1.65c5.55-.58 9.72-3.96 9.72-8.93 0-4.4-3.6-9-8.2-9-5.26 0-8.86 4.03-8.86 9.29 0 7.34 5.97 12.16 13.17 12.16 9.65 0 17.86-6.26 17.86-15.26 0-2.02-3.17-16.27-3.1-15.77 7.7-3.74 12.96-10.37 12.96-17.35 0-9.58-7.7-16.92-17.28-16.92-.14 0-1.15.07-2.88.22l-3.16-15.2c10.72-9.07 15.62-18.72 15.62-29.3 0-8.14-3.24-16.78-9.8-25.85-7.4 5.98-11.66 17.93-11.66 30.67 0 4.54.58 8.93 1.59 13.1-16.42 13.76-24.63 26.43-24.63 38.02 0 13.61 14.04 24.92 29.3 24.92 3.4 0 5.91-.5 8.22-1.66zm-.21-94.6a12.08 12.08 0 0 1 3.6 8.7c0 6.99-4.97 14.84-14.69 23.48-.5-2.1-.65-4.4-.65-6.92 0-12.1 4.47-25.41 10.44-25.41.5 0 .94.07 1.3.14zm1.51 91.65-5.11-24.05c1-.07 1.58-.14 1.8-.14 6.2 0 10.51 5.83 10.51 11.8 0 4.76-2.52 8.93-7.2 12.39zm-6.91-23.76 5.18 24.77c-2.52 1.36-5.32 1.94-8.7 1.94-11.67 0-21.75-8.71-21.75-19.3 0-9.57 7.13-19.44 20.59-29.52l3.02 14.4c-7.48 1.59-13.82 7.92-13.82 15.05 0 6.05 4.32 10.3 10.8 11.3-3.96-2.44-5.9-5.54-5.9-9.21 0-4.97 4.6-8.64 10.58-9.43z" style="font-style:normal;font-weight:400;font-size:72px;font-family:'Opus Std';display:inline;fill:#000;fill-opacity:1;fill-rule:evenodd;stroke:none;stroke-width:.5625;stroke-linecap:butt;stroke-linejoin:bevel;stroke-opacity:1" id="path6860"/></g><g aria-label="" id="text1332" style="font-style:normal;font-weight:400;font-size:72px;font-family:'Opus Std';display:inline;fill:#000;fill-opacity:1;fill-rule:evenodd;stroke:none;stroke-width:.5625;stroke-linecap:butt;stroke-linejoin:bevel;stroke-opacity:1" transform="translate(15.08 5.08) scale(.0882)"><path d="m260.4 1491.2 2.74 13.33c.15.79.22 1.5.22 2.23 0 7.05-7.2 12.96-14.98 12.96a15.2 15.2 0 0 1-6.84-1.66c5.55-.57 9.72-3.96 9.72-8.93 0-4.39-3.6-9-8.2-9-5.26 0-8.86 4.04-8.86 9.3 0 7.34 5.97 12.16 13.17 12.16 9.65 0 17.86-6.26 17.86-15.26 0-2.02-3.17-16.28-3.1-15.77 7.7-3.75 12.96-10.37 12.96-17.35 0-9.58-7.7-16.92-17.28-16.92-.14 0-1.15.07-2.88.21l-3.16-15.2c10.72-9.06 15.62-18.71 15.62-29.3 0-8.13-3.24-16.77-9.8-25.84-7.4 5.97-11.66 17.93-11.66 30.67 0 4.54.58 8.93 1.59 13.1-16.42 13.76-24.63 26.43-24.63 38.02 0 13.6 14.04 24.91 29.3 24.91 3.4 0 5.91-.5 8.22-1.65zm-.21-94.6a12.08 12.08 0 0 1 3.6 8.71c0 6.98-4.97 14.83-14.69 23.47a29.9 29.9 0 0 1-.65-6.91c0-12.1 4.47-25.42 10.44-25.42.5 0 .94.08 1.3.15zm1.51 91.65-5.11-24.04c1-.08 1.58-.15 1.8-.15 6.2 0 10.51 5.83 10.51 11.81 0 4.75-2.52 8.93-7.2 12.38zm-6.91-23.76 5.18 24.77c-2.52 1.37-5.32 1.95-8.7 1.95-11.67 0-21.75-8.72-21.75-19.3 0-9.58 7.13-19.44 20.59-29.52l3.02 14.4c-7.48 1.58-13.82 7.92-13.82 15.05 0 6.05 4.32 10.3 10.8 11.3-3.96-2.45-5.9-5.54-5.9-9.21 0-4.97 4.6-8.64 10.58-9.44z" style="font-style:normal;font-weight:400;font-size:72px;font-family:'Opus Std';display:inline;fill:#000;fill-opacity:1;fill-rule:evenodd;stroke:none;stroke-width:.5625;stroke-linecap:butt;stroke-linejoin:bevel;stroke-opacity:1" id="path6863"/></g><g aria-label="" id="text2008" style="font-style:normal;font-weight:400;font-size:72px;font-family:'Opus Std';display:inline;fill:#000;fill-opacity:1;fill-rule:evenodd;stroke:none;stroke-width:.5625;stroke-linecap:butt;stroke-linejoin:bevel;stroke-opacity:1" transform="translate(15.08 5.08) scale(.0882)"><path d="M256.66 2020.7c10.59 0 16.78-5.33 16.78-15.05 0-9.86-5.83-18.43-14.4-18.43-3.17 0-5.55 1.51-8.07 3.9-1.72 0-2.8-3.68-2.8-7.28 0-2.74 1.08-5.11 2.59-5.11h.36c1.94 1.36 4.9 2.01 8.71 2.01 7.42 0 13.32-8.2 13.32-17.13 0-9.65-6.84-15.27-17.35-15.27-3.75 0-7.49.58-10.08 3.96a11.49 11.49 0 0 0-2.52 7.13c0 3.67 2.66 6.55 6.33 6.55 3.03 0 5.7-3.53 5.7-6.33 0-2.1-1.02-3.39-4.54-4.97-1.08-.5-1.59-.94-1.59-1.3 0-1.22 1.59-1.87 4.75-1.87 8 0 10.3 2.38 10.3 13.97 0 7.05-2.52 12.17-6.84 12.17-2.45 0-5.76-2.52-10-7.64-.73 7.13-3.54 12.96-7.14 12.96-.36 0-.64-.07-1-.14v-34.2h-2.88v71.71h2.88v-33.12a4.2 4.2 0 0 1 1.36-.21c3.32 0 5.84 5.18 6.77 12.6 3.53-5.7 6.99-8.57 10.37-8.57 3.96 0 6.7 5.83 6.7 12.6 0 11.23-2.24 14.47-8.64 14.47-3.68 0-5.55-.8-5.55-2.38 0-.86 5.11-2.66 5.11-5.9s-2.73-6.2-5.97-6.2c-3.1 0-5.62 3.46-5.62 6.42 0 6.48 5.98 10.65 12.96 10.65zm-33.91-72.07v71.71h9v-71.7z" style="font-style:normal;font-weight:400;font-size:72px;font-family:'Opus Std';display:inline;fill:#000;fill-opacity:1;fill-rule:evenodd;stroke:none;stroke-width:.5625;stroke-linecap:butt;stroke-linejoin:bevel;stroke-opacity:1" id="path6866"/></g><g aria-label="" id="text2428" style="font-style:normal;font-weight:400;font-size:72px;font-family:'Opus Std';display:inline;fill:#000;fill-opacity:1;fill-rule:evenodd;stroke:none;stroke-width:.5625;stroke-linecap:butt;stroke-linejoin:bevel;stroke-opacity:1" transform="translate(15.08 5.08) scale(.0882)"><path d="M223.4 2534.43c.07 1.08.79 1.66 2.3 1.66 5.9 0 22.32-8.14 29.23-19.23 5.55-8.78 7.13-13.32 7.13-19.3 0-9.57-4.39-21.16-21.31-21.16-9.22 0-17.57 6.48-17.57 14.98 0 5.54 2.95 10.3 7.49 10.3s7.63-3.46 7.63-8c0-3.24-2.45-6.2-5.61-6.2-2.96 0-5.19 2.31-4.97 2.31-.36 0-.5-.36-.5-1.15 0-5.04 6.33-9.94 12.16-9.94 8.21 0 13.4 6.84 13.4 15.99 0 11.37-6.63 23.97-17.21 33.48-2.81 2.52-6.92 4.6-12.17 6.26zm44.71-48.74c0 2.01 1.58 3.6 3.6 3.6s3.6-1.59 3.6-3.6c0-2.02-1.58-3.6-3.6-3.6a3.57 3.57 0 0 0-3.6 3.6zm0 17.93c0 2.01 1.58 3.6 3.6 3.6s3.6-1.59 3.6-3.6c0-2.02-1.58-3.6-3.6-3.6a3.57 3.57 0 0 0-3.6 3.6z" style="font-style:normal;font-weight:400;font-size:72px;font-family:'Opus Std';display:inline;fill:#000;fill-opacity:1;fill-rule:evenodd;stroke:none;stroke-width:.5625;stroke-linecap:butt;stroke-linejoin:bevel;stroke-opacity:1" id="path6869"/></g></g></svg>
