<svg xmlns="http://www.w3.org/2000/svg" viewBox="0 0 4.6 11.94" version="1.1" id="svg7019"><g id="layer1" transform="translate(-102.02 -114.98)"><g aria-label="" id="text696" style="font-style:normal;font-weight:400;font-size:72px;font-family:'Opus Std';display:inline;fill:#000;fill-opacity:1;fill-rule:evenodd;stroke:none;stroke-width:.5625;stroke-linecap:butt;stroke-linejoin:bevel;stroke-opacity:1" transform="translate(82.36 39.26) scale(.0882)"><path d="m260.4 963.58 2.74 13.32c.15.8.22 1.51.22 2.23 0 7.06-7.2 12.96-14.98 12.96a15.2 15.2 0 0 1-6.84-1.65c5.55-.58 9.72-3.96 9.72-8.93 0-4.4-3.6-9-8.2-9-5.26 0-8.86 4.03-8.86 9.29 0 7.34 5.97 12.16 13.17 12.16 9.65 0 17.86-6.26 17.86-15.26 0-2.02-3.17-16.27-3.1-15.77 7.7-3.74 12.96-10.37 12.96-17.35 0-9.58-7.7-16.92-17.28-16.92-.14 0-1.15.07-2.88.22l-3.16-15.2c10.72-9.07 15.62-18.72 15.62-29.3 0-8.14-3.24-16.78-9.8-25.85-7.4 5.98-11.66 17.93-11.66 30.67 0 4.54.58 8.93 1.59 13.1-16.42 13.76-24.63 26.43-24.63 38.02 0 13.61 14.04 24.92 29.3 24.92 3.4 0 5.91-.5 8.22-1.66zm-.21-94.6a12.08 12.08 0 0 1 3.6 8.7c0 6.99-4.97 14.84-14.69 23.48-.5-2.1-.65-4.4-.65-6.92 0-12.1 4.47-25.41 10.44-25.41.5 0 .94.07 1.3.14zm1.51 91.65-5.11-24.05c1-.07 1.58-.14 1.8-.14 6.2 0 10.51 5.83 10.51 11.8 0 4.76-2.52 8.93-7.2 12.39zm-6.91-23.76 5.18 24.77c-2.52 1.36-5.32 1.94-8.7 1.94-11.67 0-21.75-8.71-21.75-19.3 0-9.57 7.13-19.44 20.59-29.52l3.02 14.4c-7.48 1.59-13.82 7.92-13.82 15.05 0 6.05 4.32 10.3 10.8 11.3-3.96-2.44-5.9-5.54-5.9-9.21 0-4.97 4.6-8.64 10.58-9.43z" style="font-style:normal;font-weight:400;font-size:72px;font-family:'Opus Std';display:inline;fill:#000;fill-opacity:1;fill-rule:evenodd;stroke:none;stroke-width:.5625;stroke-linecap:butt;stroke-linejoin:bevel;stroke-opacity:1" id="path6860"/></g></g></svg>
