<svg xmlns="http://www.w3.org/2000/svg" width="17.38" height="19.9" viewBox="0 0 4.6 5.26" version="1.1" id="svg7019"><g id="layer1" transform="translate(-98.38 -113.67)"><g aria-label="" id="text64" style="font-style:normal;font-weight:400;font-size:72px;font-family:'Opus Std';display:inline;fill:#000;fill-opacity:1;fill-rule:evenodd;stroke:none;stroke-width:.5625;stroke-linecap:butt;stroke-linejoin:bevel;stroke-opacity:1" transform="translate(78.7 81.4) scale(.0882)"><path id="path6857" style="font-style:normal;font-weight:400;font-size:72px;font-family:'Opus Std';display:inline;fill:#000;fill-opacity:1;fill-rule:evenodd;stroke:none;stroke-width:.5625;stroke-linecap:butt;stroke-linejoin:bevel;stroke-opacity:1" d="M223.4 423.93c.7 2.89 4.6 1.3 6.6.83a52.69 52.69 0 0 0 22.35-14.87 56.52 56.52 0 0 0 8.42-14.78c2.23-6.86 1.7-14.86-2.17-21.04-3.84-6.1-11.4-8.38-18.28-8.17-7.35.09-15.17 4.77-16.85 12.27-.88 4.42.24 10.01 4.46 12.36 4.08 2.03 9.41-.86 10.15-5.31 1.08-3.6-1.35-8.24-5.4-8.23-2.06-.42-4.02 1.9-5.35 2.02-.63-4.28 3.1-7.82 6.65-9.52 5.57-2.9 13.06-.76 16.19 4.7 4 6.64 2.83 15.02.36 21.99a54.1 54.1 0 0 1-16.37 22.64c-3.22 2.37-6.98 3.9-10.76 5.11zm44.71-48.74c-.17 2.95 3.73 4.74 5.9 2.78 2.46-1.82 1.16-6.24-1.93-6.36a3.6 3.6 0 0 0-3.97 3.58zm0 17.93c-.17 2.94 3.73 4.74 5.9 2.78 2.46-1.83 1.16-6.24-1.93-6.37a3.6 3.6 0 0 0-3.97 3.59z"/></g></g></svg>
